<?xml version="1.0" encoding="UTF-8" standalone="no"?>
<!DOCTYPE svg PUBLIC "-//W3C//DTD SVG 1.1//EN"
 "http://www.w3.org/Graphics/SVG/1.1/DTD/svg11.dtd">
<!-- Generated by graphviz version 2.43.0 (0)
 -->
<!-- Title: /home/aightech/dev/kistler_DAQ/lib/built_lsl/include/lsl_cpp.h Pages: 1 -->
<svg width="269pt" height="162pt"
 viewBox="0.00 0.00 268.50 162.00" xmlns="http://www.w3.org/2000/svg" xmlns:xlink="http://www.w3.org/1999/xlink">
<g id="graph0" class="graph" transform="scale(1 1) rotate(0) translate(4 158)">
<title>/home/aightech/dev/kistler_DAQ/lib/built_lsl/include/lsl_cpp.h</title>
<!-- Node1 -->
<g id="node1" class="node">
<title>Node1</title>
<g id="a_node1"><a xlink:title=" ">
<polygon fill="#bfbfbf" stroke="black" points="64.5,-112.5 64.5,-153.5 181.5,-153.5 181.5,-112.5 64.5,-112.5"/>
<text text-anchor="start" x="72.5" y="-141.5" font-family="Helvetica,sans-Serif" font-size="10.00">/home/aightech/dev</text>
<text text-anchor="start" x="72.5" y="-130.5" font-family="Helvetica,sans-Serif" font-size="10.00">/kistler_DAQ/lib/built</text>
<text text-anchor="middle" x="123" y="-119.5" font-family="Helvetica,sans-Serif" font-size="10.00">_lsl/include/lsl_cpp.h</text>
</a>
</g>
</g>
<!-- Node2 -->
<g id="node2" class="node">
<title>Node2</title>
<g id="a_node2"><a xlink:title=" ">
<polygon fill="none" stroke="#bfbfbf" points="0,-56.5 0,-75.5 44,-75.5 44,-56.5 0,-56.5"/>
<text text-anchor="middle" x="22" y="-63.5" font-family="Helvetica,sans-Serif" font-size="10.00">string</text>
</a>
</g>
</g>
<!-- Node1&#45;&gt;Node2 -->
<g id="edge1" class="edge">
<title>Node1&#45;&gt;Node2</title>
<path fill="none" stroke="midnightblue" d="M92.7,-112.5C77.06,-102.44 58.34,-90.38 44.09,-81.21"/>
<polygon fill="midnightblue" stroke="midnightblue" points="45.75,-78.12 35.44,-75.65 41.96,-84.01 45.75,-78.12"/>
</g>
<!-- Node3 -->
<g id="node3" class="node">
<title>Node3</title>
<g id="a_node3"><a xlink:title=" ">
<polygon fill="none" stroke="#bfbfbf" points="62.5,-56.5 62.5,-75.5 109.5,-75.5 109.5,-56.5 62.5,-56.5"/>
<text text-anchor="middle" x="86" y="-63.5" font-family="Helvetica,sans-Serif" font-size="10.00">vector</text>
</a>
</g>
</g>
<!-- Node1&#45;&gt;Node3 -->
<g id="edge2" class="edge">
<title>Node1&#45;&gt;Node3</title>
<path fill="none" stroke="midnightblue" d="M111.9,-112.5C106.83,-103.59 100.86,-93.11 95.94,-84.46"/>
<polygon fill="midnightblue" stroke="midnightblue" points="98.91,-82.61 90.93,-75.65 92.83,-86.07 98.91,-82.61"/>
</g>
<!-- Node4 -->
<g id="node4" class="node">
<title>Node4</title>
<g id="a_node4"><a xlink:title=" ">
<polygon fill="none" stroke="#bfbfbf" points="127.5,-56.5 127.5,-75.5 192.5,-75.5 192.5,-56.5 127.5,-56.5"/>
<text text-anchor="middle" x="160" y="-63.5" font-family="Helvetica,sans-Serif" font-size="10.00">stdexcept</text>
</a>
</g>
</g>
<!-- Node1&#45;&gt;Node4 -->
<g id="edge3" class="edge">
<title>Node1&#45;&gt;Node4</title>
<path fill="none" stroke="midnightblue" d="M134.1,-112.5C139.17,-103.59 145.14,-93.11 150.06,-84.46"/>
<polygon fill="midnightblue" stroke="midnightblue" points="153.17,-86.07 155.07,-75.65 147.09,-82.61 153.17,-86.07"/>
</g>
<!-- Node5 -->
<g id="node5" class="node">
<title>Node5</title>
<g id="a_node5"><a xlink:href="../../db/df3/lsl__c_8h.html" target="_top" xlink:title=" ">
<polygon fill="none" stroke="black" points="210.5,-56.5 210.5,-75.5 257.5,-75.5 257.5,-56.5 210.5,-56.5"/>
<text text-anchor="middle" x="234" y="-63.5" font-family="Helvetica,sans-Serif" font-size="10.00">lsl_c.h</text>
</a>
</g>
</g>
<!-- Node1&#45;&gt;Node5 -->
<g id="edge4" class="edge">
<title>Node1&#45;&gt;Node5</title>
<path fill="none" stroke="midnightblue" d="M156.3,-112.5C173.65,-102.34 194.46,-90.16 210.17,-80.95"/>
<polygon fill="midnightblue" stroke="midnightblue" points="212.36,-83.73 219.22,-75.65 208.83,-77.69 212.36,-83.73"/>
</g>
<!-- Node6 -->
<g id="node6" class="node">
<title>Node6</title>
<g id="a_node6"><a xlink:title=" ">
<polygon fill="none" stroke="#bfbfbf" points="207.5,-0.5 207.5,-19.5 260.5,-19.5 260.5,-0.5 207.5,-0.5"/>
<text text-anchor="middle" x="234" y="-7.5" font-family="Helvetica,sans-Serif" font-size="10.00">stdint.h</text>
</a>
</g>
</g>
<!-- Node5&#45;&gt;Node6 -->
<g id="edge5" class="edge">
<title>Node5&#45;&gt;Node6</title>
<path fill="none" stroke="midnightblue" d="M234,-56.08C234,-49.01 234,-38.86 234,-29.99"/>
<polygon fill="midnightblue" stroke="midnightblue" points="237.5,-29.75 234,-19.75 230.5,-29.75 237.5,-29.75"/>
</g>
</g>
</svg>
