<?xml version="1.0" encoding="UTF-8" standalone="no"?>
<!DOCTYPE svg PUBLIC "-//W3C//DTD SVG 1.1//EN"
 "http://www.w3.org/Graphics/SVG/1.1/DTD/svg11.dtd">
<!-- Generated by graphviz version 2.43.0 (0)
 -->
<!-- Title: lsl_get_nominal_srate Pages: 1 -->
<svg width="467pt" height="100pt"
 viewBox="0.00 0.00 467.00 99.50" xmlns="http://www.w3.org/2000/svg" xmlns:xlink="http://www.w3.org/1999/xlink">
<g id="graph0" class="graph" transform="scale(1 1) rotate(0) translate(4 95.5)">
<title>lsl_get_nominal_srate</title>
<!-- Node1 -->
<g id="node1" class="node">
<title>Node1</title>
<g id="a_node1"><a xlink:title=" ">
<polygon fill="#bfbfbf" stroke="black" points="335,-38.5 335,-57.5 459,-57.5 459,-38.5 335,-38.5"/>
<text text-anchor="middle" x="397" y="-45.5" font-family="Helvetica,sans-Serif" font-size="10.00">lsl_get_nominal_srate</text>
</a>
</g>
</g>
<!-- Node2 -->
<g id="node2" class="node">
<title>Node2</title>
<g id="a_node2"><a xlink:href="../../d1/d6a/classlsl_1_1stream__info.html#a35b9b9b8947915f9f9518333342e2835" target="_top" xlink:title=" ">
<polygon fill="none" stroke="black" points="161,-33 161,-63 299,-63 299,-33 161,-33"/>
<text text-anchor="start" x="169" y="-51" font-family="Helvetica,sans-Serif" font-size="10.00">lsl::stream_info::nominal</text>
<text text-anchor="middle" x="230" y="-40" font-family="Helvetica,sans-Serif" font-size="10.00">_srate</text>
</a>
</g>
</g>
<!-- Node1&#45;&gt;Node2 -->
<g id="edge1" class="edge">
<title>Node1&#45;&gt;Node2</title>
<path fill="none" stroke="midnightblue" d="M324.42,-48C316.03,-48 307.49,-48 299.15,-48"/>
<polygon fill="midnightblue" stroke="midnightblue" points="324.56,-51.5 334.56,-48 324.56,-44.5 324.56,-51.5"/>
</g>
<!-- Node3 -->
<g id="node3" class="node">
<title>Node3</title>
<g id="a_node3"><a xlink:href="../../d6/d55/classlsl_1_1stream__outlet.html#a58427b98e8a60e7d160534078f3e04f8" target="_top" xlink:title=" ">
<polygon fill="none" stroke="black" points="11.5,-61 11.5,-91 113.5,-91 113.5,-61 11.5,-61"/>
<text text-anchor="start" x="19.5" y="-79" font-family="Helvetica,sans-Serif" font-size="10.00">lsl::stream_outlet</text>
<text text-anchor="middle" x="62.5" y="-68" font-family="Helvetica,sans-Serif" font-size="10.00">::push_chunk</text>
</a>
</g>
</g>
<!-- Node2&#45;&gt;Node3 -->
<g id="edge2" class="edge">
<title>Node2&#45;&gt;Node3</title>
<path fill="none" stroke="midnightblue" d="M150.68,-61.25C138.09,-63.38 125.36,-65.53 113.66,-67.51"/>
<polygon fill="midnightblue" stroke="midnightblue" points="151.45,-64.67 160.73,-59.55 150.29,-57.77 151.45,-64.67"/>
</g>
<!-- Node4 -->
<g id="node4" class="node">
<title>Node4</title>
<g id="a_node4"><a xlink:href="../../d6/d55/classlsl_1_1stream__outlet.html#ad7e1405b50bc546c4f742f508aa734cc" target="_top" xlink:title=" ">
<polygon fill="none" stroke="black" points="0,-0.5 0,-41.5 125,-41.5 125,-0.5 0,-0.5"/>
<text text-anchor="start" x="8" y="-29.5" font-family="Helvetica,sans-Serif" font-size="10.00">lsl::stream_outlet</text>
<text text-anchor="start" x="8" y="-18.5" font-family="Helvetica,sans-Serif" font-size="10.00">::push_chunk_numeric</text>
<text text-anchor="middle" x="62.5" y="-7.5" font-family="Helvetica,sans-Serif" font-size="10.00">_structs</text>
</a>
</g>
</g>
<!-- Node2&#45;&gt;Node4 -->
<g id="edge3" class="edge">
<title>Node2&#45;&gt;Node4</title>
<path fill="none" stroke="midnightblue" d="M150.74,-35.23C142.18,-33.84 133.57,-32.43 125.25,-31.07"/>
<polygon fill="midnightblue" stroke="midnightblue" points="150.3,-38.71 160.73,-36.86 151.42,-31.8 150.3,-38.71"/>
</g>
</g>
</svg>
