<?xml version="1.0" encoding="UTF-8" standalone="no"?>
<!DOCTYPE svg PUBLIC "-//W3C//DTD SVG 1.1//EN"
 "http://www.w3.org/Graphics/SVG/1.1/DTD/svg11.dtd">
<!-- Generated by graphviz version 2.43.0 (0)
 -->
<!-- Title: lsl_push_sample_vtp Pages: 1 -->
<svg width="598pt" height="50pt"
 viewBox="0.00 0.00 598.00 50.00" xmlns="http://www.w3.org/2000/svg" xmlns:xlink="http://www.w3.org/1999/xlink">
<g id="graph0" class="graph" transform="scale(1 1) rotate(0) translate(4 46)">
<title>lsl_push_sample_vtp</title>
<!-- Node1 -->
<g id="node1" class="node">
<title>Node1</title>
<g id="a_node1"><a xlink:title=" ">
<polygon fill="#bfbfbf" stroke="black" points="471,-11.5 471,-30.5 590,-30.5 590,-11.5 471,-11.5"/>
<text text-anchor="middle" x="530.5" y="-18.5" font-family="Helvetica,sans-Serif" font-size="10.00">lsl_push_sample_vtp</text>
</a>
</g>
</g>
<!-- Node2 -->
<g id="node2" class="node">
<title>Node2</title>
<g id="a_node2"><a xlink:href="../../d6/d55/classlsl_1_1stream__outlet.html#a5c394e995a86d03cb71c3d180f855681" target="_top" xlink:title=" ">
<polygon fill="none" stroke="black" points="321,-6 321,-36 435,-36 435,-6 321,-6"/>
<text text-anchor="start" x="329" y="-24" font-family="Helvetica,sans-Serif" font-size="10.00">lsl::stream_outlet</text>
<text text-anchor="middle" x="378" y="-13" font-family="Helvetica,sans-Serif" font-size="10.00">::push_numeric_raw</text>
</a>
</g>
</g>
<!-- Node1&#45;&gt;Node2 -->
<g id="edge1" class="edge">
<title>Node1&#45;&gt;Node2</title>
<path fill="none" stroke="midnightblue" d="M460.61,-21C452.11,-21 443.51,-21 435.24,-21"/>
<polygon fill="midnightblue" stroke="midnightblue" points="460.88,-24.5 470.88,-21 460.88,-17.5 460.88,-24.5"/>
</g>
<!-- Node3 -->
<g id="node3" class="node">
<title>Node3</title>
<g id="a_node3"><a xlink:href="../../d6/d55/classlsl_1_1stream__outlet.html#a18b2da34bdd1306ef926d97532c43f28" target="_top" xlink:title=" ">
<polygon fill="none" stroke="black" points="161,-6 161,-36 285,-36 285,-6 161,-6"/>
<text text-anchor="start" x="169" y="-24" font-family="Helvetica,sans-Serif" font-size="10.00">lsl::stream_outlet</text>
<text text-anchor="middle" x="223" y="-13" font-family="Helvetica,sans-Serif" font-size="10.00">::push_numeric_struct</text>
</a>
</g>
</g>
<!-- Node2&#45;&gt;Node3 -->
<g id="edge2" class="edge">
<title>Node2&#45;&gt;Node3</title>
<path fill="none" stroke="midnightblue" d="M310.7,-21C302.24,-21 293.62,-21 285.25,-21"/>
<polygon fill="midnightblue" stroke="midnightblue" points="310.9,-24.5 320.9,-21 310.9,-17.5 310.9,-24.5"/>
</g>
<!-- Node4 -->
<g id="node4" class="node">
<title>Node4</title>
<g id="a_node4"><a xlink:href="../../d6/d55/classlsl_1_1stream__outlet.html#ad7e1405b50bc546c4f742f508aa734cc" target="_top" xlink:title=" ">
<polygon fill="none" stroke="black" points="0,-0.5 0,-41.5 125,-41.5 125,-0.5 0,-0.5"/>
<text text-anchor="start" x="8" y="-29.5" font-family="Helvetica,sans-Serif" font-size="10.00">lsl::stream_outlet</text>
<text text-anchor="start" x="8" y="-18.5" font-family="Helvetica,sans-Serif" font-size="10.00">::push_chunk_numeric</text>
<text text-anchor="middle" x="62.5" y="-7.5" font-family="Helvetica,sans-Serif" font-size="10.00">_structs</text>
</a>
</g>
</g>
<!-- Node3&#45;&gt;Node4 -->
<g id="edge3" class="edge">
<title>Node3&#45;&gt;Node4</title>
<path fill="none" stroke="midnightblue" d="M150.49,-21C142.03,-21 133.45,-21 125.14,-21"/>
<polygon fill="midnightblue" stroke="midnightblue" points="150.72,-24.5 160.72,-21 150.72,-17.5 150.72,-24.5"/>
</g>
</g>
</svg>
