<?xml version="1.0" encoding="UTF-8" standalone="no"?>
<!DOCTYPE svg PUBLIC "-//W3C//DTD SVG 1.1//EN"
 "http://www.w3.org/Graphics/SVG/1.1/DTD/svg11.dtd">
<!-- Generated by graphviz version 2.43.0 (0)
 -->
<!-- Title: lsl_destroy_string Pages: 1 -->
<svg width="281pt" height="127pt"
 viewBox="0.00 0.00 281.00 126.50" xmlns="http://www.w3.org/2000/svg" xmlns:xlink="http://www.w3.org/1999/xlink">
<g id="graph0" class="graph" transform="scale(1 1) rotate(0) translate(4 122.5)">
<title>lsl_destroy_string</title>
<!-- Node1 -->
<g id="node1" class="node">
<title>Node1</title>
<g id="a_node1"><a xlink:title=" ">
<polygon fill="#bfbfbf" stroke="black" points="170,-55 170,-74 273,-74 273,-55 170,-55"/>
<text text-anchor="middle" x="221.5" y="-62" font-family="Helvetica,sans-Serif" font-size="10.00">lsl_destroy_string</text>
</a>
</g>
</g>
<!-- Node2 -->
<g id="node2" class="node">
<title>Node2</title>
<g id="a_node2"><a xlink:href="../../d1/d6a/classlsl_1_1stream__info.html#ab1ccb9c2a1945c7051a0e90edaba8996" target="_top" xlink:title=" ">
<polygon fill="none" stroke="black" points="0,-99 0,-118 134,-118 134,-99 0,-99"/>
<text text-anchor="middle" x="67" y="-106" font-family="Helvetica,sans-Serif" font-size="10.00">lsl::stream_info::as_xml</text>
</a>
</g>
</g>
<!-- Node1&#45;&gt;Node2 -->
<g id="edge1" class="edge">
<title>Node1&#45;&gt;Node2</title>
<path fill="none" stroke="midnightblue" d="M177.81,-76.85C163.84,-80.88 148.26,-85.39 134,-89.5 123.35,-92.57 111.72,-95.92 101.24,-98.94"/>
<polygon fill="midnightblue" stroke="midnightblue" points="179.01,-80.14 187.64,-74.01 177.06,-73.42 179.01,-80.14"/>
</g>
<!-- Node3 -->
<g id="node3" class="node">
<title>Node3</title>
<g id="a_node3"><a xlink:href="../../d6/dbd/classlsl_1_1stream__inlet.html#a6a0f2f39152a2975571d5073d9967646" target="_top" xlink:title=" ">
<polygon fill="none" stroke="black" points="1,-49.5 1,-79.5 133,-79.5 133,-49.5 1,-49.5"/>
<text text-anchor="start" x="9" y="-67.5" font-family="Helvetica,sans-Serif" font-size="10.00">lsl::stream_inlet::</text>
<text text-anchor="middle" x="67" y="-56.5" font-family="Helvetica,sans-Serif" font-size="10.00">pull_chunk_multiplexed</text>
</a>
</g>
</g>
<!-- Node1&#45;&gt;Node3 -->
<g id="edge2" class="edge">
<title>Node1&#45;&gt;Node3</title>
<path fill="none" stroke="midnightblue" d="M159.66,-64.5C150.97,-64.5 141.99,-64.5 133.21,-64.5"/>
<polygon fill="midnightblue" stroke="midnightblue" points="159.72,-68 169.72,-64.5 159.72,-61 159.72,-68"/>
</g>
<!-- Node4 -->
<g id="node4" class="node">
<title>Node4</title>
<g id="a_node4"><a xlink:href="../../d6/dbd/classlsl_1_1stream__inlet.html#a52e95747438991868e3eb9c791e24f42" target="_top" xlink:title=" ">
<polygon fill="none" stroke="black" points="16.5,-0.5 16.5,-30.5 117.5,-30.5 117.5,-0.5 16.5,-0.5"/>
<text text-anchor="start" x="24.5" y="-18.5" font-family="Helvetica,sans-Serif" font-size="10.00">lsl::stream_inlet::</text>
<text text-anchor="middle" x="67" y="-7.5" font-family="Helvetica,sans-Serif" font-size="10.00">pull_sample</text>
</a>
</g>
</g>
<!-- Node1&#45;&gt;Node4 -->
<g id="edge3" class="edge">
<title>Node1&#45;&gt;Node4</title>
<path fill="none" stroke="midnightblue" d="M181.19,-51.87C160.92,-45.36 136.05,-37.37 114.8,-30.54"/>
<polygon fill="midnightblue" stroke="midnightblue" points="180.14,-55.21 190.73,-54.94 182.28,-48.54 180.14,-55.21"/>
</g>
</g>
</svg>
