<?xml version="1.0" encoding="UTF-8" standalone="no"?>
<!DOCTYPE svg PUBLIC "-//W3C//DTD SVG 1.1//EN"
 "http://www.w3.org/Graphics/SVG/1.1/DTD/svg11.dtd">
<!-- Generated by graphviz version 2.43.0 (0)
 -->
<!-- Title: lsl_name Pages: 1 -->
<svg width="419pt" height="470pt"
 viewBox="0.00 0.00 419.00 470.00" xmlns="http://www.w3.org/2000/svg" xmlns:xlink="http://www.w3.org/1999/xlink">
<g id="graph0" class="graph" transform="scale(1 1) rotate(0) translate(4 466)">
<title>lsl_name</title>
<!-- Node1 -->
<g id="node1" class="node">
<title>Node1</title>
<g id="a_node1"><a xlink:title=" ">
<polygon fill="#bfbfbf" stroke="black" points="350,-226 350,-245 411,-245 411,-226 350,-226"/>
<text text-anchor="middle" x="380.5" y="-233" font-family="Helvetica,sans-Serif" font-size="10.00">lsl_name</text>
</a>
</g>
</g>
<!-- Node2 -->
<g id="node2" class="node">
<title>Node2</title>
<g id="a_node2"><a xlink:href="../../d9/d90/classlsl_1_1xml__element.html#a2e449e85b7e763b1d0db4bb19d2eb7c2" target="_top" xlink:title="Name of the element.">
<polygon fill="none" stroke="black" points="182,-226 182,-245 314,-245 314,-226 182,-226"/>
<text text-anchor="middle" x="248" y="-233" font-family="Helvetica,sans-Serif" font-size="10.00">lsl::xml_element::name</text>
</a>
</g>
</g>
<!-- Node1&#45;&gt;Node2 -->
<g id="edge1" class="edge">
<title>Node1&#45;&gt;Node2</title>
<path fill="none" stroke="midnightblue" d="M339.67,-235.5C331.58,-235.5 322.88,-235.5 314.18,-235.5"/>
<polygon fill="midnightblue" stroke="midnightblue" points="339.89,-239 349.89,-235.5 339.89,-232 339.89,-239"/>
</g>
<!-- Node3 -->
<g id="node3" class="node">
<title>Node3</title>
<g id="a_node3"><a xlink:href="../../d9/d90/classlsl_1_1xml__element.html#af56c7976bb62cabc9c0ca69502063fea" target="_top" xlink:title="Append a child element with the specified name.">
<polygon fill="none" stroke="black" points="3,-431.5 3,-461.5 143,-461.5 143,-431.5 3,-431.5"/>
<text text-anchor="start" x="11" y="-449.5" font-family="Helvetica,sans-Serif" font-size="10.00">lsl::xml_element::append</text>
<text text-anchor="middle" x="73" y="-438.5" font-family="Helvetica,sans-Serif" font-size="10.00">_child</text>
</a>
</g>
</g>
<!-- Node2&#45;&gt;Node3 -->
<g id="edge2" class="edge">
<title>Node2&#45;&gt;Node3</title>
<path fill="none" stroke="midnightblue" d="M241.72,-255.07C230.51,-292.93 200.77,-376.49 146,-422.5 141.96,-425.89 137.43,-428.81 132.66,-431.31"/>
<polygon fill="midnightblue" stroke="midnightblue" points="245.13,-255.85 244.5,-245.28 238.4,-253.94 245.13,-255.85"/>
</g>
<!-- Node4 -->
<g id="node4" class="node">
<title>Node4</title>
<g id="a_node4"><a xlink:href="../../d9/d90/classlsl_1_1xml__element.html#a6a162d1b57049f5ecab6b68207a71d53" target="_top" xlink:title=" ">
<polygon fill="none" stroke="black" points="3,-382.5 3,-412.5 143,-412.5 143,-382.5 3,-382.5"/>
<text text-anchor="start" x="11" y="-400.5" font-family="Helvetica,sans-Serif" font-size="10.00">lsl::xml_element::append</text>
<text text-anchor="middle" x="73" y="-389.5" font-family="Helvetica,sans-Serif" font-size="10.00">_child_value</text>
</a>
</g>
</g>
<!-- Node2&#45;&gt;Node4 -->
<g id="edge3" class="edge">
<title>Node2&#45;&gt;Node4</title>
<path fill="none" stroke="midnightblue" d="M237.98,-254.13C222.9,-283.42 189.84,-340.21 146,-372.5 140.78,-376.35 134.92,-379.63 128.86,-382.44"/>
<polygon fill="midnightblue" stroke="midnightblue" points="241.2,-255.51 242.56,-245.01 234.95,-252.38 241.2,-255.51"/>
</g>
<!-- Node5 -->
<g id="node5" class="node">
<title>Node5</title>
<g id="a_node5"><a xlink:href="../../d9/d90/classlsl_1_1xml__element.html#a111ef129dce406af43948d8c9b915148" target="_top" xlink:title="Get a child with a specified name.">
<polygon fill="none" stroke="black" points="9,-344 9,-363 137,-363 137,-344 9,-344"/>
<text text-anchor="middle" x="73" y="-351" font-family="Helvetica,sans-Serif" font-size="10.00">lsl::xml_element::child</text>
</a>
</g>
</g>
<!-- Node2&#45;&gt;Node5 -->
<g id="edge4" class="edge">
<title>Node2&#45;&gt;Node5</title>
<path fill="none" stroke="midnightblue" d="M233.96,-253C216.42,-275.28 183.13,-313.4 146,-334.5 139.26,-338.33 131.72,-341.41 124.13,-343.88"/>
<polygon fill="midnightblue" stroke="midnightblue" points="236.76,-255.1 240.08,-245.04 231.21,-250.84 236.76,-255.1"/>
</g>
<!-- Node6 -->
<g id="node6" class="node">
<title>Node6</title>
<g id="a_node6"><a xlink:href="../../d9/d90/classlsl_1_1xml__element.html#a893102d2d84a444a89099f9c90cb6c31" target="_top" xlink:title="Get child value of a child with a specified name.">
<polygon fill="none" stroke="black" points="9,-294.5 9,-324.5 137,-324.5 137,-294.5 9,-294.5"/>
<text text-anchor="start" x="17" y="-312.5" font-family="Helvetica,sans-Serif" font-size="10.00">lsl::xml_element::child</text>
<text text-anchor="middle" x="73" y="-301.5" font-family="Helvetica,sans-Serif" font-size="10.00">_value</text>
</a>
</g>
</g>
<!-- Node2&#45;&gt;Node6 -->
<g id="edge5" class="edge">
<title>Node2&#45;&gt;Node6</title>
<path fill="none" stroke="midnightblue" d="M220.59,-249.83C200.47,-260.43 171.93,-274.82 146,-285.5 138.45,-288.61 130.33,-291.62 122.36,-294.4"/>
<polygon fill="midnightblue" stroke="midnightblue" points="222.28,-252.89 229.46,-245.11 218.99,-246.71 222.28,-252.89"/>
</g>
<!-- Node7 -->
<g id="node7" class="node">
<title>Node7</title>
<g id="a_node7"><a xlink:href="../../d9/d90/classlsl_1_1xml__element.html#a100590d2a9822261a3f0b0ed7810134d" target="_top" xlink:title="Get the next sibling with the specified name.">
<polygon fill="none" stroke="black" points="10,-245.5 10,-275.5 136,-275.5 136,-245.5 10,-245.5"/>
<text text-anchor="start" x="18" y="-263.5" font-family="Helvetica,sans-Serif" font-size="10.00">lsl::xml_element::next</text>
<text text-anchor="middle" x="73" y="-252.5" font-family="Helvetica,sans-Serif" font-size="10.00">_sibling</text>
</a>
</g>
</g>
<!-- Node2&#45;&gt;Node7 -->
<g id="edge6" class="edge">
<title>Node2&#45;&gt;Node7</title>
<path fill="none" stroke="midnightblue" d="M171.69,-246.38C159.8,-248.1 147.62,-249.86 136.07,-251.53"/>
<polygon fill="midnightblue" stroke="midnightblue" points="172.2,-249.85 181.6,-244.95 171.2,-242.92 172.2,-249.85"/>
</g>
<!-- Node8 -->
<g id="node8" class="node">
<title>Node8</title>
<g id="a_node8"><a xlink:href="../../d9/d90/classlsl_1_1xml__element.html#abd881c6c5d0d381f9efff2fc25975e7e" target="_top" xlink:title="Prepend a child element with the specified name.">
<polygon fill="none" stroke="black" points="1,-196.5 1,-226.5 145,-226.5 145,-196.5 1,-196.5"/>
<text text-anchor="start" x="9" y="-214.5" font-family="Helvetica,sans-Serif" font-size="10.00">lsl::xml_element::prepend</text>
<text text-anchor="middle" x="73" y="-203.5" font-family="Helvetica,sans-Serif" font-size="10.00">_child</text>
</a>
</g>
</g>
<!-- Node2&#45;&gt;Node8 -->
<g id="edge7" class="edge">
<title>Node2&#45;&gt;Node8</title>
<path fill="none" stroke="midnightblue" d="M171.47,-225.02C162.77,-223.82 153.92,-222.59 145.28,-221.39"/>
<polygon fill="midnightblue" stroke="midnightblue" points="171.21,-228.52 181.6,-226.43 172.17,-221.59 171.21,-228.52"/>
</g>
<!-- Node9 -->
<g id="node9" class="node">
<title>Node9</title>
<g id="a_node9"><a xlink:href="../../d9/d90/classlsl_1_1xml__element.html#a3e7fde09def517574df99c71a0a05d23" target="_top" xlink:title=" ">
<polygon fill="none" stroke="black" points="1,-147.5 1,-177.5 145,-177.5 145,-147.5 1,-147.5"/>
<text text-anchor="start" x="9" y="-165.5" font-family="Helvetica,sans-Serif" font-size="10.00">lsl::xml_element::prepend</text>
<text text-anchor="middle" x="73" y="-154.5" font-family="Helvetica,sans-Serif" font-size="10.00">_child_value</text>
</a>
</g>
</g>
<!-- Node2&#45;&gt;Node9 -->
<g id="edge8" class="edge">
<title>Node2&#45;&gt;Node9</title>
<path fill="none" stroke="midnightblue" d="M219.11,-221.23C199.03,-211.21 171.16,-197.81 146,-187.5 137.67,-184.09 128.69,-180.72 119.99,-177.63"/>
<polygon fill="midnightblue" stroke="midnightblue" points="217.78,-224.48 228.29,-225.85 220.93,-218.23 217.78,-224.48"/>
</g>
<!-- Node10 -->
<g id="node10" class="node">
<title>Node10</title>
<g id="a_node10"><a xlink:href="../../d9/d90/classlsl_1_1xml__element.html#a70b90853b7edfaebfe69bc1103ed6b8b" target="_top" xlink:title="Get the previous sibling with the specified name.">
<polygon fill="none" stroke="black" points="0,-98.5 0,-128.5 146,-128.5 146,-98.5 0,-98.5"/>
<text text-anchor="start" x="8" y="-116.5" font-family="Helvetica,sans-Serif" font-size="10.00">lsl::xml_element::previous</text>
<text text-anchor="middle" x="73" y="-105.5" font-family="Helvetica,sans-Serif" font-size="10.00">_sibling</text>
</a>
</g>
</g>
<!-- Node2&#45;&gt;Node10 -->
<g id="edge9" class="edge">
<title>Node2&#45;&gt;Node10</title>
<path fill="none" stroke="midnightblue" d="M232.84,-217.85C214.75,-196.37 181.53,-160.27 146,-138.5 139.79,-134.7 132.93,-131.38 125.98,-128.5"/>
<polygon fill="midnightblue" stroke="midnightblue" points="230.35,-220.34 239.41,-225.82 235.75,-215.88 230.35,-220.34"/>
</g>
<!-- Node11 -->
<g id="node11" class="node">
<title>Node11</title>
<g id="a_node11"><a xlink:href="../../d9/d90/classlsl_1_1xml__element.html#ad23da57ac3a6a7f3dd849be0a8b44a47" target="_top" xlink:title="Remove a child element with the specified name.">
<polygon fill="none" stroke="black" points="2,-49.5 2,-79.5 144,-79.5 144,-49.5 2,-49.5"/>
<text text-anchor="start" x="10" y="-67.5" font-family="Helvetica,sans-Serif" font-size="10.00">lsl::xml_element::remove</text>
<text text-anchor="middle" x="73" y="-56.5" font-family="Helvetica,sans-Serif" font-size="10.00">_child</text>
</a>
</g>
</g>
<!-- Node2&#45;&gt;Node11 -->
<g id="edge10" class="edge">
<title>Node2&#45;&gt;Node11</title>
<path fill="none" stroke="midnightblue" d="M238.71,-216.49C224.27,-185.53 191.64,-124.19 146,-89.5 140.94,-85.66 135.25,-82.38 129.34,-79.58"/>
<polygon fill="midnightblue" stroke="midnightblue" points="235.58,-218.08 242.9,-225.74 241.96,-215.19 235.58,-218.08"/>
</g>
<!-- Node12 -->
<g id="node12" class="node">
<title>Node12</title>
<g id="a_node12"><a xlink:href="../../d9/d90/classlsl_1_1xml__element.html#a6fe187e03b36cf8fd5f9d3892e99453f" target="_top" xlink:title=" ">
<polygon fill="none" stroke="black" points="13.5,-0.5 13.5,-30.5 132.5,-30.5 132.5,-0.5 13.5,-0.5"/>
<text text-anchor="start" x="21.5" y="-18.5" font-family="Helvetica,sans-Serif" font-size="10.00">lsl::xml_element::set</text>
<text text-anchor="middle" x="73" y="-7.5" font-family="Helvetica,sans-Serif" font-size="10.00">_child_value</text>
</a>
</g>
</g>
<!-- Node2&#45;&gt;Node12 -->
<g id="edge11" class="edge">
<title>Node2&#45;&gt;Node12</title>
<path fill="none" stroke="midnightblue" d="M242.13,-215.96C231.45,-177 202.26,-89.21 146,-40.5 141.5,-36.6 136.35,-33.3 130.93,-30.51"/>
<polygon fill="midnightblue" stroke="midnightblue" points="238.79,-217.01 244.72,-225.79 245.56,-215.23 238.79,-217.01"/>
</g>
</g>
</svg>
