<?xml version="1.0" encoding="UTF-8" standalone="no"?>
<!DOCTYPE svg PUBLIC "-//W3C//DTD SVG 1.1//EN"
 "http://www.w3.org/Graphics/SVG/1.1/DTD/svg11.dtd">
<!-- Generated by graphviz version 2.43.0 (0)
 -->
<!-- Title: lsl_get_info Pages: 1 -->
<svg width="540pt" height="127pt"
 viewBox="0.00 0.00 540.00 127.00" xmlns="http://www.w3.org/2000/svg" xmlns:xlink="http://www.w3.org/1999/xlink">
<g id="graph0" class="graph" transform="scale(1 1) rotate(0) translate(4 123)">
<title>lsl_get_info</title>
<!-- Node1 -->
<g id="node1" class="node">
<title>Node1</title>
<g id="a_node1"><a xlink:title=" ">
<polygon fill="#bfbfbf" stroke="black" points="459,-50 459,-69 532,-69 532,-50 459,-50"/>
<text text-anchor="middle" x="495.5" y="-57" font-family="Helvetica,sans-Serif" font-size="10.00">lsl_get_info</text>
</a>
</g>
</g>
<!-- Node2 -->
<g id="node2" class="node">
<title>Node2</title>
<g id="a_node2"><a xlink:href="../../d6/d55/classlsl_1_1stream__outlet.html#af6fda8eb922b27ae3ed98651934243fe" target="_top" xlink:title=" ">
<polygon fill="none" stroke="black" points="321,-44.5 321,-74.5 423,-74.5 423,-44.5 321,-44.5"/>
<text text-anchor="start" x="329" y="-62.5" font-family="Helvetica,sans-Serif" font-size="10.00">lsl::stream_outlet</text>
<text text-anchor="middle" x="372" y="-51.5" font-family="Helvetica,sans-Serif" font-size="10.00">::info</text>
</a>
</g>
</g>
<!-- Node1&#45;&gt;Node2 -->
<g id="edge1" class="edge">
<title>Node1&#45;&gt;Node2</title>
<path fill="none" stroke="midnightblue" d="M448.55,-59.5C440.33,-59.5 431.73,-59.5 423.39,-59.5"/>
<polygon fill="midnightblue" stroke="midnightblue" points="448.7,-63 458.7,-59.5 448.7,-56 448.7,-63"/>
</g>
<!-- Node3 -->
<g id="node3" class="node">
<title>Node3</title>
<g id="a_node3"><a xlink:href="../../d6/d55/classlsl_1_1stream__outlet.html#a58427b98e8a60e7d160534078f3e04f8" target="_top" xlink:title=" ">
<polygon fill="none" stroke="black" points="172,-88.5 172,-118.5 274,-118.5 274,-88.5 172,-88.5"/>
<text text-anchor="start" x="180" y="-106.5" font-family="Helvetica,sans-Serif" font-size="10.00">lsl::stream_outlet</text>
<text text-anchor="middle" x="223" y="-95.5" font-family="Helvetica,sans-Serif" font-size="10.00">::push_chunk</text>
</a>
</g>
</g>
<!-- Node2&#45;&gt;Node3 -->
<g id="edge2" class="edge">
<title>Node2&#45;&gt;Node3</title>
<path fill="none" stroke="midnightblue" d="M311.18,-77.4C298.99,-81.05 286.28,-84.86 274.45,-88.4"/>
<polygon fill="midnightblue" stroke="midnightblue" points="312.25,-80.74 320.82,-74.52 310.24,-74.03 312.25,-80.74"/>
</g>
<!-- Node4 -->
<g id="node4" class="node">
<title>Node4</title>
<g id="a_node4"><a xlink:href="../../d6/d55/classlsl_1_1stream__outlet.html#ad7e1405b50bc546c4f742f508aa734cc" target="_top" xlink:title=" ">
<polygon fill="none" stroke="black" points="0,-17 0,-58 125,-58 125,-17 0,-17"/>
<text text-anchor="start" x="8" y="-46" font-family="Helvetica,sans-Serif" font-size="10.00">lsl::stream_outlet</text>
<text text-anchor="start" x="8" y="-35" font-family="Helvetica,sans-Serif" font-size="10.00">::push_chunk_numeric</text>
<text text-anchor="middle" x="62.5" y="-24" font-family="Helvetica,sans-Serif" font-size="10.00">_structs</text>
</a>
</g>
</g>
<!-- Node2&#45;&gt;Node4 -->
<g id="edge3" class="edge">
<title>Node2&#45;&gt;Node4</title>
<path fill="none" stroke="midnightblue" d="M310.87,-55.2C257.31,-51.37 179.28,-45.78 125.24,-41.92"/>
<polygon fill="midnightblue" stroke="midnightblue" points="310.69,-58.69 320.91,-55.92 311.19,-51.71 310.69,-58.69"/>
</g>
<!-- Node5 -->
<g id="node5" class="node">
<title>Node5</title>
<g id="a_node5"><a xlink:href="../../d6/d55/classlsl_1_1stream__outlet.html#a18b2da34bdd1306ef926d97532c43f28" target="_top" xlink:title=" ">
<polygon fill="none" stroke="black" points="161,-0.5 161,-30.5 285,-30.5 285,-0.5 161,-0.5"/>
<text text-anchor="start" x="169" y="-18.5" font-family="Helvetica,sans-Serif" font-size="10.00">lsl::stream_outlet</text>
<text text-anchor="middle" x="223" y="-7.5" font-family="Helvetica,sans-Serif" font-size="10.00">::push_numeric_struct</text>
</a>
</g>
</g>
<!-- Node2&#45;&gt;Node5 -->
<g id="edge4" class="edge">
<title>Node2&#45;&gt;Node5</title>
<path fill="none" stroke="midnightblue" d="M311.18,-41.6C298.99,-37.95 286.28,-34.14 274.45,-30.6"/>
<polygon fill="midnightblue" stroke="midnightblue" points="310.24,-44.97 320.82,-44.48 312.25,-38.26 310.24,-44.97"/>
</g>
<!-- Node5&#45;&gt;Node4 -->
<g id="edge5" class="edge">
<title>Node5&#45;&gt;Node4</title>
<path fill="none" stroke="midnightblue" d="M150.76,-25.39C142.21,-26.57 133.54,-27.78 125.14,-28.94"/>
<polygon fill="midnightblue" stroke="midnightblue" points="151.3,-28.85 160.72,-24.01 150.33,-21.91 151.3,-28.85"/>
</g>
</g>
</svg>
