<?xml version="1.0" encoding="UTF-8" standalone="no"?>
<!DOCTYPE svg PUBLIC "-//W3C//DTD SVG 1.1//EN"
 "http://www.w3.org/Graphics/SVG/1.1/DTD/svg11.dtd">
<!-- Generated by graphviz version 2.43.0 (0)
 -->
<!-- Title: lsl_samples_available Pages: 1 -->
<svg width="445pt" height="39pt"
 viewBox="0.00 0.00 445.00 39.00" xmlns="http://www.w3.org/2000/svg" xmlns:xlink="http://www.w3.org/1999/xlink">
<g id="graph0" class="graph" transform="scale(1 1) rotate(0) translate(4 35)">
<title>lsl_samples_available</title>
<!-- Node1 -->
<g id="node1" class="node">
<title>Node1</title>
<g id="a_node1"><a xlink:title=" ">
<polygon fill="#bfbfbf" stroke="black" points="312,-6 312,-25 437,-25 437,-6 312,-6"/>
<text text-anchor="middle" x="374.5" y="-13" font-family="Helvetica,sans-Serif" font-size="10.00">lsl_samples_available</text>
</a>
</g>
</g>
<!-- Node2 -->
<g id="node2" class="node">
<title>Node2</title>
<g id="a_node2"><a xlink:href="../../d6/dbd/classlsl_1_1stream__inlet.html#a8a4f5ff87d40a696ab4a5d74c03cd52b" target="_top" xlink:title=" ">
<polygon fill="none" stroke="black" points="168,-0.5 168,-30.5 276,-30.5 276,-0.5 168,-0.5"/>
<text text-anchor="start" x="176" y="-18.5" font-family="Helvetica,sans-Serif" font-size="10.00">lsl::stream_inlet::</text>
<text text-anchor="middle" x="222" y="-7.5" font-family="Helvetica,sans-Serif" font-size="10.00">samples_available</text>
</a>
</g>
</g>
<!-- Node1&#45;&gt;Node2 -->
<g id="edge1" class="edge">
<title>Node1&#45;&gt;Node2</title>
<path fill="none" stroke="midnightblue" d="M301.77,-15.5C293.13,-15.5 284.43,-15.5 276.13,-15.5"/>
<polygon fill="midnightblue" stroke="midnightblue" points="301.85,-19 311.85,-15.5 301.85,-12 301.85,-19"/>
</g>
<!-- Node3 -->
<g id="node3" class="node">
<title>Node3</title>
<g id="a_node3"><a xlink:href="../../d6/dbd/classlsl_1_1stream__inlet.html#a9ac87825319b345987fdd54e606fd56f" target="_top" xlink:title="pull_chunk_multiplexed Pull a multiplexed chunk of samples and optionally the sample timestamps from ...">
<polygon fill="none" stroke="black" points="0,-0.5 0,-30.5 132,-30.5 132,-0.5 0,-0.5"/>
<text text-anchor="start" x="8" y="-18.5" font-family="Helvetica,sans-Serif" font-size="10.00">lsl::stream_inlet::</text>
<text text-anchor="middle" x="66" y="-7.5" font-family="Helvetica,sans-Serif" font-size="10.00">pull_chunk_multiplexed</text>
</a>
</g>
</g>
<!-- Node2&#45;&gt;Node3 -->
<g id="edge2" class="edge">
<title>Node2&#45;&gt;Node3</title>
<path fill="none" stroke="midnightblue" d="M157.46,-15.5C149.06,-15.5 140.44,-15.5 132.01,-15.5"/>
<polygon fill="midnightblue" stroke="midnightblue" points="157.57,-19 167.57,-15.5 157.57,-12 157.57,-19"/>
</g>
</g>
</svg>
