<?xml version="1.0" encoding="UTF-8" standalone="no"?>
<!DOCTYPE svg PUBLIC "-//W3C//DTD SVG 1.1//EN"
 "http://www.w3.org/Graphics/SVG/1.1/DTD/svg11.dtd">
<!-- Generated by graphviz version 2.43.0 (0)
 -->
<!-- Title: Graphical Class Hierarchy Pages: 1 -->
<svg width="249pt" height="66pt"
 viewBox="0.00 0.00 249.00 66.00" xmlns="http://www.w3.org/2000/svg" xmlns:xlink="http://www.w3.org/1999/xlink">
<g id="graph0" class="graph" transform="scale(1 1) rotate(0) translate(4 62)">
<title>Graphical Class Hierarchy</title>
<!-- Node2 -->
<g id="node1" class="node">
<title>Node2</title>
<g id="a_node1"><a xlink:title=" ">
<polygon fill="none" stroke="#bfbfbf" points="0,-19.5 0,-38.5 104,-38.5 104,-19.5 0,-19.5"/>
<text text-anchor="middle" x="52" y="-26.5" font-family="Helvetica,sans-Serif" font-size="10.00">std::runtime_error</text>
</a>
</g>
</g>
<!-- Node0 -->
<g id="node2" class="node">
<title>Node0</title>
<g id="a_node2"><a xlink:href="de/d94/classlsl_1_1lost__error.html" target="_top" xlink:title="Exception class that indicates that a stream inlet&#39;s source has been irrecoverably lost.">
<polygon fill="none" stroke="black" points="150.5,-38.5 150.5,-57.5 230.5,-57.5 230.5,-38.5 150.5,-38.5"/>
<text text-anchor="middle" x="190.5" y="-45.5" font-family="Helvetica,sans-Serif" font-size="10.00">lsl::lost_error</text>
</a>
</g>
</g>
<!-- Node2&#45;&gt;Node0 -->
<g id="edge1" class="edge">
<title>Node2&#45;&gt;Node0</title>
<path fill="none" stroke="midnightblue" d="M114.38,-37.54C126.61,-39.25 139.14,-40.99 150.37,-42.55"/>
<polygon fill="midnightblue" stroke="midnightblue" points="114.6,-34.04 104.22,-36.13 113.64,-40.97 114.6,-34.04"/>
</g>
<!-- Node4 -->
<g id="node3" class="node">
<title>Node4</title>
<g id="a_node3"><a xlink:href="d4/d01/classlsl_1_1timeout__error.html" target="_top" xlink:title="Exception class that indicates that an operation failed due to a timeout.">
<polygon fill="none" stroke="black" points="140,-0.5 140,-19.5 241,-19.5 241,-0.5 140,-0.5"/>
<text text-anchor="middle" x="190.5" y="-7.5" font-family="Helvetica,sans-Serif" font-size="10.00">lsl::timeout_error</text>
</a>
</g>
</g>
<!-- Node2&#45;&gt;Node4 -->
<g id="edge2" class="edge">
<title>Node2&#45;&gt;Node4</title>
<path fill="none" stroke="midnightblue" d="M114.18,-20.48C122.76,-19.29 131.48,-18.08 139.81,-16.92"/>
<polygon fill="midnightblue" stroke="midnightblue" points="113.64,-17.03 104.22,-21.87 114.6,-23.96 113.64,-17.03"/>
</g>
</g>
</svg>
