<?xml version="1.0" encoding="UTF-8" standalone="no"?>
<!DOCTYPE svg PUBLIC "-//W3C//DTD SVG 1.1//EN"
 "http://www.w3.org/Graphics/SVG/1.1/DTD/svg11.dtd">
<!-- Generated by graphviz version 2.43.0 (0)
 -->
<!-- Title: lsl::stream_inlet::pull_chunk_multiplexed Pages: 1 -->
<svg width="270pt" height="66pt"
 viewBox="0.00 0.00 270.00 66.00" xmlns="http://www.w3.org/2000/svg" xmlns:xlink="http://www.w3.org/1999/xlink">
<g id="graph0" class="graph" transform="scale(1 1) rotate(0) translate(4 62)">
<title>lsl::stream_inlet::pull_chunk_multiplexed</title>
<!-- Node1 -->
<g id="node1" class="node">
<title>Node1</title>
<g id="a_node1"><a xlink:title=" ">
<polygon fill="#bfbfbf" stroke="black" points="0,-14 0,-44 132,-44 132,-14 0,-14"/>
<text text-anchor="start" x="8" y="-32" font-family="Helvetica,sans-Serif" font-size="10.00">lsl::stream_inlet::</text>
<text text-anchor="middle" x="66" y="-21" font-family="Helvetica,sans-Serif" font-size="10.00">pull_chunk_multiplexed</text>
</a>
</g>
</g>
<!-- Node2 -->
<g id="node2" class="node">
<title>Node2</title>
<g id="a_node2"><a xlink:href="../../d3/db0/namespacelsl.html#acce0545ac0a7831acde1a759b778393c" target="_top" xlink:title=" ">
<polygon fill="none" stroke="black" points="169.5,-38.5 169.5,-57.5 260.5,-57.5 260.5,-38.5 169.5,-38.5"/>
<text text-anchor="middle" x="215" y="-45.5" font-family="Helvetica,sans-Serif" font-size="10.00">lsl::check_error</text>
</a>
</g>
</g>
<!-- Node1&#45;&gt;Node2 -->
<g id="edge1" class="edge">
<title>Node1&#45;&gt;Node2</title>
<path fill="none" stroke="midnightblue" d="M132.33,-37.44C141.26,-38.6 150.35,-39.77 159.07,-40.9"/>
<polygon fill="midnightblue" stroke="midnightblue" points="158.73,-44.39 169.1,-42.2 159.63,-37.44 158.73,-44.39"/>
</g>
<!-- Node3 -->
<g id="node3" class="node">
<title>Node3</title>
<g id="a_node3"><a xlink:href="../../db/df3/lsl__c_8h.html#af1a8ca4c78fcf8571d811131ca479ba8" target="_top" xlink:title=" ">
<polygon fill="none" stroke="black" points="168,-0.5 168,-19.5 262,-19.5 262,-0.5 168,-0.5"/>
<text text-anchor="middle" x="215" y="-7.5" font-family="Helvetica,sans-Serif" font-size="10.00">lsl_pull_chunk_l</text>
</a>
</g>
</g>
<!-- Node1&#45;&gt;Node3 -->
<g id="edge2" class="edge">
<title>Node1&#45;&gt;Node3</title>
<path fill="none" stroke="midnightblue" d="M132.33,-20.56C140.84,-19.46 149.49,-18.34 157.83,-17.26"/>
<polygon fill="midnightblue" stroke="midnightblue" points="158.34,-20.72 167.81,-15.97 157.44,-13.78 158.34,-20.72"/>
</g>
</g>
</svg>
