<?xml version="1.0" encoding="UTF-8" standalone="no"?>
<!DOCTYPE svg PUBLIC "-//W3C//DTD SVG 1.1//EN"
 "http://www.w3.org/Graphics/SVG/1.1/DTD/svg11.dtd">
<!-- Generated by graphviz version 2.43.0 (0)
 -->
<!-- Title: lsl::stream_inlet::pull_chunk_numeric_structs Pages: 1 -->
<svg width="588pt" height="66pt"
 viewBox="0.00 0.00 588.00 66.00" xmlns="http://www.w3.org/2000/svg" xmlns:xlink="http://www.w3.org/1999/xlink">
<g id="graph0" class="graph" transform="scale(1 1) rotate(0) translate(4 62)">
<title>lsl::stream_inlet::pull_chunk_numeric_structs</title>
<!-- Node1 -->
<g id="node1" class="node">
<title>Node1</title>
<g id="a_node1"><a xlink:title=" ">
<polygon fill="#bfbfbf" stroke="black" points="0,-14 0,-44 152,-44 152,-14 0,-14"/>
<text text-anchor="start" x="8" y="-32" font-family="Helvetica,sans-Serif" font-size="10.00">lsl::stream_inlet::</text>
<text text-anchor="middle" x="76" y="-21" font-family="Helvetica,sans-Serif" font-size="10.00">pull_chunk_numeric_structs</text>
</a>
</g>
</g>
<!-- Node2 -->
<g id="node2" class="node">
<title>Node2</title>
<g id="a_node2"><a xlink:href="../../d6/dbd/classlsl_1_1stream__inlet.html#a540c7ba2c23188916ffe311c26c2c081" target="_top" xlink:title=" ">
<polygon fill="none" stroke="black" points="188,-14 188,-44 301,-44 301,-14 188,-14"/>
<text text-anchor="start" x="196" y="-32" font-family="Helvetica,sans-Serif" font-size="10.00">lsl::stream_inlet::</text>
<text text-anchor="middle" x="244.5" y="-21" font-family="Helvetica,sans-Serif" font-size="10.00">pull_numeric_struct</text>
</a>
</g>
</g>
<!-- Node1&#45;&gt;Node2 -->
<g id="edge1" class="edge">
<title>Node1&#45;&gt;Node2</title>
<path fill="none" stroke="midnightblue" d="M152.46,-29C160.8,-29 169.26,-29 177.48,-29"/>
<polygon fill="midnightblue" stroke="midnightblue" points="177.74,-32.5 187.74,-29 177.74,-25.5 177.74,-32.5"/>
</g>
<!-- Node3 -->
<g id="node3" class="node">
<title>Node3</title>
<g id="a_node3"><a xlink:href="../../d6/dbd/classlsl_1_1stream__inlet.html#ae8f7beaaa82d192d844abdd1531f6b9a" target="_top" xlink:title=" ">
<polygon fill="none" stroke="black" points="337,-14 337,-44 440,-44 440,-14 337,-14"/>
<text text-anchor="start" x="345" y="-32" font-family="Helvetica,sans-Serif" font-size="10.00">lsl::stream_inlet::</text>
<text text-anchor="middle" x="388.5" y="-21" font-family="Helvetica,sans-Serif" font-size="10.00">pull_numeric_raw</text>
</a>
</g>
</g>
<!-- Node2&#45;&gt;Node3 -->
<g id="edge2" class="edge">
<title>Node2&#45;&gt;Node3</title>
<path fill="none" stroke="midnightblue" d="M301.21,-29C309.5,-29 318.08,-29 326.47,-29"/>
<polygon fill="midnightblue" stroke="midnightblue" points="326.57,-32.5 336.57,-29 326.57,-25.5 326.57,-32.5"/>
</g>
<!-- Node4 -->
<g id="node4" class="node">
<title>Node4</title>
<g id="a_node4"><a xlink:href="../../d3/db0/namespacelsl.html#acce0545ac0a7831acde1a759b778393c" target="_top" xlink:title=" ">
<polygon fill="none" stroke="black" points="482.5,-38.5 482.5,-57.5 573.5,-57.5 573.5,-38.5 482.5,-38.5"/>
<text text-anchor="middle" x="528" y="-45.5" font-family="Helvetica,sans-Serif" font-size="10.00">lsl::check_error</text>
</a>
</g>
</g>
<!-- Node3&#45;&gt;Node4 -->
<g id="edge3" class="edge">
<title>Node3&#45;&gt;Node4</title>
<path fill="none" stroke="midnightblue" d="M440.31,-36.02C450.74,-37.46 461.77,-38.99 472.34,-40.45"/>
<polygon fill="midnightblue" stroke="midnightblue" points="471.9,-43.92 482.29,-41.82 472.86,-36.99 471.9,-43.92"/>
</g>
<!-- Node5 -->
<g id="node5" class="node">
<title>Node5</title>
<g id="a_node5"><a xlink:href="../../db/df3/lsl__c_8h.html#a0574687b034da933fb4832caa3d04f92" target="_top" xlink:title=" ">
<polygon fill="none" stroke="black" points="476,-0.5 476,-19.5 580,-19.5 580,-0.5 476,-0.5"/>
<text text-anchor="middle" x="528" y="-7.5" font-family="Helvetica,sans-Serif" font-size="10.00">lsl_pull_sample_v</text>
</a>
</g>
</g>
<!-- Node3&#45;&gt;Node5 -->
<g id="edge4" class="edge">
<title>Node3&#45;&gt;Node5</title>
<path fill="none" stroke="midnightblue" d="M440.31,-21.98C448.67,-20.82 457.41,-19.62 465.98,-18.43"/>
<polygon fill="midnightblue" stroke="midnightblue" points="466.51,-21.89 475.94,-17.06 465.56,-14.96 466.51,-21.89"/>
</g>
</g>
</svg>
