<?xml version="1.0" encoding="UTF-8" standalone="no"?>
<!DOCTYPE svg PUBLIC "-//W3C//DTD SVG 1.1//EN"
 "http://www.w3.org/Graphics/SVG/1.1/DTD/svg11.dtd">
<!-- Generated by graphviz version 2.43.0 (0)
 -->
<!-- Title: lsl::stream_inlet::pull_chunk Pages: 1 -->
<svg width="246pt" height="57pt"
 viewBox="0.00 0.00 246.00 57.00" xmlns="http://www.w3.org/2000/svg" xmlns:xlink="http://www.w3.org/1999/xlink">
<g id="graph0" class="graph" transform="scale(1 1) rotate(0) translate(4 53)">
<title>lsl::stream_inlet::pull_chunk</title>
<!-- Node1 -->
<g id="node1" class="node">
<title>Node1</title>
<g id="a_node1"><a xlink:title=" ">
<polygon fill="#bfbfbf" stroke="black" points="0,-0.5 0,-30.5 101,-30.5 101,-0.5 0,-0.5"/>
<text text-anchor="start" x="8" y="-18.5" font-family="Helvetica,sans-Serif" font-size="10.00">lsl::stream_inlet::</text>
<text text-anchor="middle" x="50.5" y="-7.5" font-family="Helvetica,sans-Serif" font-size="10.00">pull_chunk</text>
</a>
</g>
</g>
<!-- Node2 -->
<g id="node2" class="node">
<title>Node2</title>
<g id="a_node2"><a xlink:href="../../d6/dbd/classlsl_1_1stream__inlet.html#a58dc91be6ec0d1b83024a169ad0c292b" target="_top" xlink:title=" ">
<polygon fill="none" stroke="black" points="137,-0.5 137,-30.5 238,-30.5 238,-0.5 137,-0.5"/>
<text text-anchor="start" x="145" y="-18.5" font-family="Helvetica,sans-Serif" font-size="10.00">lsl::stream_inlet::</text>
<text text-anchor="middle" x="187.5" y="-7.5" font-family="Helvetica,sans-Serif" font-size="10.00">pull_sample</text>
</a>
</g>
</g>
<!-- Node1&#45;&gt;Node2 -->
<g id="edge1" class="edge">
<title>Node1&#45;&gt;Node2</title>
<path fill="none" stroke="midnightblue" d="M101,-15.5C109.24,-15.5 117.87,-15.5 126.34,-15.5"/>
<polygon fill="midnightblue" stroke="midnightblue" points="126.55,-19 136.55,-15.5 126.55,-12 126.55,-19"/>
</g>
<!-- Node2&#45;&gt;Node2 -->
<g id="edge2" class="edge">
<title>Node2&#45;&gt;Node2</title>
<path fill="none" stroke="midnightblue" d="M163.8,-30.66C158.08,-40.06 165.98,-49 187.5,-49 200.61,-49 208.67,-45.68 211.67,-40.96"/>
<polygon fill="midnightblue" stroke="midnightblue" points="215.15,-40.49 211.2,-30.66 208.16,-40.81 215.15,-40.49"/>
</g>
</g>
</svg>
