<?xml version="1.0" encoding="UTF-8" standalone="no"?>
<!DOCTYPE svg PUBLIC "-//W3C//DTD SVG 1.1//EN"
 "http://www.w3.org/Graphics/SVG/1.1/DTD/svg11.dtd">
<!-- Generated by graphviz version 2.43.0 (0)
 -->
<!-- Title: lsl::stream_inlet::pull_sample Pages: 1 -->
<svg width="246pt" height="66pt"
 viewBox="0.00 0.00 246.00 66.00" xmlns="http://www.w3.org/2000/svg" xmlns:xlink="http://www.w3.org/1999/xlink">
<g id="graph0" class="graph" transform="scale(1 1) rotate(0) translate(4 62)">
<title>lsl::stream_inlet::pull_sample</title>
<!-- Node1 -->
<g id="node1" class="node">
<title>Node1</title>
<g id="a_node1"><a xlink:title=" ">
<polygon fill="#bfbfbf" stroke="black" points="0,-14 0,-44 101,-44 101,-14 0,-14"/>
<text text-anchor="start" x="8" y="-32" font-family="Helvetica,sans-Serif" font-size="10.00">lsl::stream_inlet::</text>
<text text-anchor="middle" x="50.5" y="-21" font-family="Helvetica,sans-Serif" font-size="10.00">pull_sample</text>
</a>
</g>
</g>
<!-- Node2 -->
<g id="node2" class="node">
<title>Node2</title>
<g id="a_node2"><a xlink:href="../../d3/db0/namespacelsl.html#acce0545ac0a7831acde1a759b778393c" target="_top" xlink:title=" ">
<polygon fill="none" stroke="black" points="142,-38.5 142,-57.5 233,-57.5 233,-38.5 142,-38.5"/>
<text text-anchor="middle" x="187.5" y="-45.5" font-family="Helvetica,sans-Serif" font-size="10.00">lsl::check_error</text>
</a>
</g>
</g>
<!-- Node1&#45;&gt;Node2 -->
<g id="edge1" class="edge">
<title>Node1&#45;&gt;Node2</title>
<path fill="none" stroke="midnightblue" d="M101,-35.97C111.05,-37.38 121.67,-38.88 131.88,-40.31"/>
<polygon fill="midnightblue" stroke="midnightblue" points="131.53,-43.8 141.92,-41.73 132.5,-36.87 131.53,-43.8"/>
</g>
<!-- Node3 -->
<g id="node3" class="node">
<title>Node3</title>
<g id="a_node3"><a xlink:href="../../db/df3/lsl__c_8h.html#a7d4458adb9735400f666935f977e03f5" target="_top" xlink:title=" ">
<polygon fill="none" stroke="black" points="137,-0.5 137,-19.5 238,-19.5 238,-0.5 137,-0.5"/>
<text text-anchor="middle" x="187.5" y="-7.5" font-family="Helvetica,sans-Serif" font-size="10.00">lsl_pull_sample_l</text>
</a>
</g>
</g>
<!-- Node1&#45;&gt;Node3 -->
<g id="edge2" class="edge">
<title>Node1&#45;&gt;Node3</title>
<path fill="none" stroke="midnightblue" d="M101,-22.03C109.33,-20.86 118.06,-19.63 126.61,-18.43"/>
<polygon fill="midnightblue" stroke="midnightblue" points="127.14,-21.89 136.55,-17.03 126.16,-14.96 127.14,-21.89"/>
</g>
</g>
</svg>
