<?xml version="1.0" encoding="UTF-8" standalone="no"?>
<!DOCTYPE svg PUBLIC "-//W3C//DTD SVG 1.1//EN"
 "http://www.w3.org/Graphics/SVG/1.1/DTD/svg11.dtd">
<!-- Generated by graphviz version 2.43.0 (0)
 -->
<!-- Title: lsl::stream_inlet::info Pages: 1 -->
<svg width="255pt" height="66pt"
 viewBox="0.00 0.00 255.00 66.00" xmlns="http://www.w3.org/2000/svg" xmlns:xlink="http://www.w3.org/1999/xlink">
<g id="graph0" class="graph" transform="scale(1 1) rotate(0) translate(4 62)">
<title>lsl::stream_inlet::info</title>
<!-- Node1 -->
<g id="node1" class="node">
<title>Node1</title>
<g id="a_node1"><a xlink:title=" ">
<polygon fill="#bfbfbf" stroke="black" points="0,-19.5 0,-38.5 120,-38.5 120,-19.5 0,-19.5"/>
<text text-anchor="middle" x="60" y="-26.5" font-family="Helvetica,sans-Serif" font-size="10.00">lsl::stream_inlet::info</text>
</a>
</g>
</g>
<!-- Node2 -->
<g id="node2" class="node">
<title>Node2</title>
<g id="a_node2"><a xlink:href="../../d3/db0/namespacelsl.html#acce0545ac0a7831acde1a759b778393c" target="_top" xlink:title=" ">
<polygon fill="none" stroke="black" points="156,-38.5 156,-57.5 247,-57.5 247,-38.5 156,-38.5"/>
<text text-anchor="middle" x="201.5" y="-45.5" font-family="Helvetica,sans-Serif" font-size="10.00">lsl::check_error</text>
</a>
</g>
</g>
<!-- Node1&#45;&gt;Node2 -->
<g id="edge1" class="edge">
<title>Node1&#45;&gt;Node2</title>
<path fill="none" stroke="midnightblue" d="M120.16,-37.06C128.61,-38.21 137.27,-39.39 145.63,-40.53"/>
<polygon fill="midnightblue" stroke="midnightblue" points="145.26,-44.01 155.64,-41.89 146.21,-37.07 145.26,-44.01"/>
</g>
<!-- Node3 -->
<g id="node3" class="node">
<title>Node3</title>
<g id="a_node3"><a xlink:href="../../db/df3/lsl__c_8h.html#a5517cad6ae3f24aa079a0f2a67654226" target="_top" xlink:title=" ">
<polygon fill="none" stroke="black" points="157,-0.5 157,-19.5 246,-19.5 246,-0.5 157,-0.5"/>
<text text-anchor="middle" x="201.5" y="-7.5" font-family="Helvetica,sans-Serif" font-size="10.00">lsl_get_fullinfo</text>
</a>
</g>
</g>
<!-- Node1&#45;&gt;Node3 -->
<g id="edge2" class="edge">
<title>Node1&#45;&gt;Node3</title>
<path fill="none" stroke="midnightblue" d="M120.16,-20.94C129.02,-19.74 138.11,-18.5 146.85,-17.31"/>
<polygon fill="midnightblue" stroke="midnightblue" points="147.47,-20.75 156.91,-15.94 146.53,-13.82 147.47,-20.75"/>
</g>
</g>
</svg>
