<?xml version="1.0" encoding="UTF-8" standalone="no"?>
<!DOCTYPE svg PUBLIC "-//W3C//DTD SVG 1.1//EN"
 "http://www.w3.org/Graphics/SVG/1.1/DTD/svg11.dtd">
<!-- Generated by graphviz version 2.43.0 (0)
 -->
<!-- Title: lsl::stream_inlet::pull_sample Pages: 1 -->
<svg width="277pt" height="88pt"
 viewBox="0.00 0.00 277.00 88.00" xmlns="http://www.w3.org/2000/svg" xmlns:xlink="http://www.w3.org/1999/xlink">
<g id="graph0" class="graph" transform="scale(1 1) rotate(0) translate(4 84)">
<title>lsl::stream_inlet::pull_sample</title>
<!-- Node1 -->
<g id="node1" class="node">
<title>Node1</title>
<g id="a_node1"><a xlink:title=" ">
<polygon fill="#bfbfbf" stroke="black" points="168,-24.5 168,-54.5 269,-54.5 269,-24.5 168,-24.5"/>
<text text-anchor="start" x="176" y="-42.5" font-family="Helvetica,sans-Serif" font-size="10.00">lsl::stream_inlet::</text>
<text text-anchor="middle" x="218.5" y="-31.5" font-family="Helvetica,sans-Serif" font-size="10.00">pull_sample</text>
</a>
</g>
</g>
<!-- Node1&#45;&gt;Node1 -->
<g id="edge3" class="edge">
<title>Node1&#45;&gt;Node1</title>
<path fill="none" stroke="midnightblue" d="M245.51,-64.96C242.16,-69.68 233.15,-73 218.5,-73 194.45,-73 185.62,-64.06 192.01,-54.66"/>
<polygon fill="midnightblue" stroke="midnightblue" points="248.99,-64.47 244.99,-54.66 242,-64.82 248.99,-64.47"/>
</g>
<!-- Node2 -->
<g id="node2" class="node">
<title>Node2</title>
<g id="a_node2"><a xlink:href="../../d6/dbd/classlsl_1_1stream__inlet.html#af9051121db6ffa6945bd2288b2bf2a15" target="_top" xlink:title=" ">
<polygon fill="none" stroke="black" points="15.5,-49.5 15.5,-79.5 116.5,-79.5 116.5,-49.5 15.5,-49.5"/>
<text text-anchor="start" x="23.5" y="-67.5" font-family="Helvetica,sans-Serif" font-size="10.00">lsl::stream_inlet::</text>
<text text-anchor="middle" x="66" y="-56.5" font-family="Helvetica,sans-Serif" font-size="10.00">pull_chunk</text>
</a>
</g>
</g>
<!-- Node1&#45;&gt;Node2 -->
<g id="edge1" class="edge">
<title>Node1&#45;&gt;Node2</title>
<path fill="none" stroke="midnightblue" d="M157.59,-49.45C144.01,-51.71 129.74,-54.08 116.64,-56.25"/>
<polygon fill="midnightblue" stroke="midnightblue" points="158.51,-52.85 167.8,-47.76 157.37,-45.94 158.51,-52.85"/>
</g>
<!-- Node3 -->
<g id="node3" class="node">
<title>Node3</title>
<g id="a_node3"><a xlink:href="../../d6/dbd/classlsl_1_1stream__inlet.html#a9ac87825319b345987fdd54e606fd56f" target="_top" xlink:title="pull_chunk_multiplexed Pull a multiplexed chunk of samples and optionally the sample timestamps from ...">
<polygon fill="none" stroke="black" points="0,-0.5 0,-30.5 132,-30.5 132,-0.5 0,-0.5"/>
<text text-anchor="start" x="8" y="-18.5" font-family="Helvetica,sans-Serif" font-size="10.00">lsl::stream_inlet::</text>
<text text-anchor="middle" x="66" y="-7.5" font-family="Helvetica,sans-Serif" font-size="10.00">pull_chunk_multiplexed</text>
</a>
</g>
</g>
<!-- Node1&#45;&gt;Node3 -->
<g id="edge2" class="edge">
<title>Node1&#45;&gt;Node3</title>
<path fill="none" stroke="midnightblue" d="M157.74,-29.97C149.35,-28.63 140.69,-27.25 132.21,-25.9"/>
<polygon fill="midnightblue" stroke="midnightblue" points="157.38,-33.46 167.8,-31.57 158.48,-26.54 157.38,-33.46"/>
</g>
</g>
</svg>
