<?xml version="1.0" encoding="UTF-8" standalone="no"?>
<!DOCTYPE svg PUBLIC "-//W3C//DTD SVG 1.1//EN"
 "http://www.w3.org/Graphics/SVG/1.1/DTD/svg11.dtd">
<!-- Generated by graphviz version 2.43.0 (0)
 -->
<!-- Title: lsl::stream_inlet::pull_chunk_multiplexed Pages: 1 -->
<svg width="272pt" height="66pt"
 viewBox="0.00 0.00 272.00 66.00" xmlns="http://www.w3.org/2000/svg" xmlns:xlink="http://www.w3.org/1999/xlink">
<g id="graph0" class="graph" transform="scale(1 1) rotate(0) translate(4 62)">
<title>lsl::stream_inlet::pull_chunk_multiplexed</title>
<!-- Node1 -->
<g id="node1" class="node">
<title>Node1</title>
<g id="a_node1"><a xlink:title=" ">
<polygon fill="#bfbfbf" stroke="black" points="0,-14 0,-44 132,-44 132,-14 0,-14"/>
<text text-anchor="start" x="8" y="-32" font-family="Helvetica,sans-Serif" font-size="10.00">lsl::stream_inlet::</text>
<text text-anchor="middle" x="66" y="-21" font-family="Helvetica,sans-Serif" font-size="10.00">pull_chunk_multiplexed</text>
</a>
</g>
</g>
<!-- Node2 -->
<g id="node2" class="node">
<title>Node2</title>
<g id="a_node2"><a xlink:href="../../d3/db0/namespacelsl.html#acce0545ac0a7831acde1a759b778393c" target="_top" xlink:title=" ">
<polygon fill="none" stroke="black" points="170.5,-38.5 170.5,-57.5 261.5,-57.5 261.5,-38.5 170.5,-38.5"/>
<text text-anchor="middle" x="216" y="-45.5" font-family="Helvetica,sans-Serif" font-size="10.00">lsl::check_error</text>
</a>
</g>
</g>
<!-- Node1&#45;&gt;Node2 -->
<g id="edge1" class="edge">
<title>Node1&#45;&gt;Node2</title>
<path fill="none" stroke="midnightblue" d="M132.35,-37.39C141.69,-38.59 151.21,-39.81 160.32,-40.98"/>
<polygon fill="midnightblue" stroke="midnightblue" points="160.02,-44.47 170.39,-42.27 160.92,-37.53 160.02,-44.47"/>
</g>
<!-- Node3 -->
<g id="node3" class="node">
<title>Node3</title>
<g id="a_node3"><a xlink:href="../../db/df3/lsl__c_8h.html#a0d7adeba028fb332270548faec0c61a1" target="_top" xlink:title=" ">
<polygon fill="none" stroke="black" points="168,-0.5 168,-19.5 264,-19.5 264,-0.5 168,-0.5"/>
<text text-anchor="middle" x="216" y="-7.5" font-family="Helvetica,sans-Serif" font-size="10.00">lsl_pull_chunk_c</text>
</a>
</g>
</g>
<!-- Node1&#45;&gt;Node3 -->
<g id="edge2" class="edge">
<title>Node1&#45;&gt;Node3</title>
<path fill="none" stroke="midnightblue" d="M132.35,-20.61C140.82,-19.52 149.46,-18.41 157.79,-17.34"/>
<polygon fill="midnightblue" stroke="midnightblue" points="158.3,-20.81 167.77,-16.06 157.41,-13.87 158.3,-20.81"/>
</g>
</g>
</svg>
