<?xml version="1.0" encoding="UTF-8" standalone="no"?>
<!DOCTYPE svg PUBLIC "-//W3C//DTD SVG 1.1//EN"
 "http://www.w3.org/Graphics/SVG/1.1/DTD/svg11.dtd">
<!-- Generated by graphviz version 2.43.0 (0)
 -->
<!-- Title: lsl::stream_inlet::pull_chunk_multiplexed Pages: 1 -->
<svg width="445pt" height="106pt"
 viewBox="0.00 0.00 445.00 106.00" xmlns="http://www.w3.org/2000/svg" xmlns:xlink="http://www.w3.org/1999/xlink">
<g id="graph0" class="graph" transform="scale(1 1) rotate(0) translate(4 102)">
<title>lsl::stream_inlet::pull_chunk_multiplexed</title>
<!-- Node1 -->
<g id="node1" class="node">
<title>Node1</title>
<g id="a_node1"><a xlink:title="pull_chunk_multiplexed Pull a multiplexed chunk of samples and optionally the sample timestamps from ...">
<polygon fill="#bfbfbf" stroke="black" points="0,-24.5 0,-54.5 132,-54.5 132,-24.5 0,-24.5"/>
<text text-anchor="start" x="8" y="-42.5" font-family="Helvetica,sans-Serif" font-size="10.00">lsl::stream_inlet::</text>
<text text-anchor="middle" x="66" y="-31.5" font-family="Helvetica,sans-Serif" font-size="10.00">pull_chunk_multiplexed</text>
</a>
</g>
</g>
<!-- Node2 -->
<g id="node2" class="node">
<title>Node2</title>
<g id="a_node2"><a xlink:href="../../d6/dbd/classlsl_1_1stream__inlet.html#a58dc91be6ec0d1b83024a169ad0c292b" target="_top" xlink:title=" ">
<polygon fill="none" stroke="black" points="171.5,-49.5 171.5,-79.5 272.5,-79.5 272.5,-49.5 171.5,-49.5"/>
<text text-anchor="start" x="179.5" y="-67.5" font-family="Helvetica,sans-Serif" font-size="10.00">lsl::stream_inlet::</text>
<text text-anchor="middle" x="222" y="-56.5" font-family="Helvetica,sans-Serif" font-size="10.00">pull_sample</text>
</a>
</g>
</g>
<!-- Node1&#45;&gt;Node2 -->
<g id="edge1" class="edge">
<title>Node1&#45;&gt;Node2</title>
<path fill="none" stroke="midnightblue" d="M132.31,-50.1C141.94,-51.67 151.82,-53.27 161.33,-54.81"/>
<polygon fill="midnightblue" stroke="midnightblue" points="161.05,-58.31 171.48,-56.46 162.17,-51.4 161.05,-58.31"/>
</g>
<!-- Node3 -->
<g id="node3" class="node">
<title>Node3</title>
<g id="a_node3"><a xlink:href="../../d6/dbd/classlsl_1_1stream__inlet.html#a8a4f5ff87d40a696ab4a5d74c03cd52b" target="_top" xlink:title=" ">
<polygon fill="none" stroke="black" points="168,-0.5 168,-30.5 276,-30.5 276,-0.5 168,-0.5"/>
<text text-anchor="start" x="176" y="-18.5" font-family="Helvetica,sans-Serif" font-size="10.00">lsl::stream_inlet::</text>
<text text-anchor="middle" x="222" y="-7.5" font-family="Helvetica,sans-Serif" font-size="10.00">samples_available</text>
</a>
</g>
</g>
<!-- Node1&#45;&gt;Node3 -->
<g id="edge3" class="edge">
<title>Node1&#45;&gt;Node3</title>
<path fill="none" stroke="midnightblue" d="M132.31,-29.32C140.7,-28.01 149.28,-26.68 157.65,-25.37"/>
<polygon fill="midnightblue" stroke="midnightblue" points="158.36,-28.8 167.71,-23.81 157.29,-21.89 158.36,-28.8"/>
</g>
<!-- Node2&#45;&gt;Node2 -->
<g id="edge2" class="edge">
<title>Node2&#45;&gt;Node2</title>
<path fill="none" stroke="midnightblue" d="M195.51,-79.66C189.12,-89.06 197.95,-98 222,-98 236.65,-98 245.66,-94.68 249.01,-89.96"/>
<polygon fill="midnightblue" stroke="midnightblue" points="252.49,-89.47 248.49,-79.66 245.5,-89.82 252.49,-89.47"/>
</g>
<!-- Node4 -->
<g id="node4" class="node">
<title>Node4</title>
<g id="a_node4"><a xlink:href="../../db/df3/lsl__c_8h.html#ac2fa5d87f7c6c5343ab9a6f678229f62" target="_top" xlink:title=" ">
<polygon fill="none" stroke="black" points="312,-6 312,-25 437,-25 437,-6 312,-6"/>
<text text-anchor="middle" x="374.5" y="-13" font-family="Helvetica,sans-Serif" font-size="10.00">lsl_samples_available</text>
</a>
</g>
</g>
<!-- Node3&#45;&gt;Node4 -->
<g id="edge4" class="edge">
<title>Node3&#45;&gt;Node4</title>
<path fill="none" stroke="midnightblue" d="M276.06,-15.5C284.39,-15.5 293.13,-15.5 301.8,-15.5"/>
<polygon fill="midnightblue" stroke="midnightblue" points="301.92,-19 311.92,-15.5 301.92,-12 301.92,-19"/>
</g>
</g>
</svg>
