<?xml version="1.0" encoding="UTF-8" standalone="no"?>
<!DOCTYPE svg PUBLIC "-//W3C//DTD SVG 1.1//EN"
 "http://www.w3.org/Graphics/SVG/1.1/DTD/svg11.dtd">
<!-- Generated by graphviz version 2.43.0 (0)
 -->
<!-- Title: lsl::stream_inlet::pull_numeric_raw Pages: 1 -->
<svg width="448pt" height="39pt"
 viewBox="0.00 0.00 448.00 39.00" xmlns="http://www.w3.org/2000/svg" xmlns:xlink="http://www.w3.org/1999/xlink">
<g id="graph0" class="graph" transform="scale(1 1) rotate(0) translate(4 35)">
<title>lsl::stream_inlet::pull_numeric_raw</title>
<!-- Node1 -->
<g id="node1" class="node">
<title>Node1</title>
<g id="a_node1"><a xlink:title=" ">
<polygon fill="#bfbfbf" stroke="black" points="337,-0.5 337,-30.5 440,-30.5 440,-0.5 337,-0.5"/>
<text text-anchor="start" x="345" y="-18.5" font-family="Helvetica,sans-Serif" font-size="10.00">lsl::stream_inlet::</text>
<text text-anchor="middle" x="388.5" y="-7.5" font-family="Helvetica,sans-Serif" font-size="10.00">pull_numeric_raw</text>
</a>
</g>
</g>
<!-- Node2 -->
<g id="node2" class="node">
<title>Node2</title>
<g id="a_node2"><a xlink:href="../../d6/dbd/classlsl_1_1stream__inlet.html#a540c7ba2c23188916ffe311c26c2c081" target="_top" xlink:title=" ">
<polygon fill="none" stroke="black" points="188,-0.5 188,-30.5 301,-30.5 301,-0.5 188,-0.5"/>
<text text-anchor="start" x="196" y="-18.5" font-family="Helvetica,sans-Serif" font-size="10.00">lsl::stream_inlet::</text>
<text text-anchor="middle" x="244.5" y="-7.5" font-family="Helvetica,sans-Serif" font-size="10.00">pull_numeric_struct</text>
</a>
</g>
</g>
<!-- Node1&#45;&gt;Node2 -->
<g id="edge1" class="edge">
<title>Node1&#45;&gt;Node2</title>
<path fill="none" stroke="midnightblue" d="M326.54,-15.5C318.16,-15.5 309.59,-15.5 301.3,-15.5"/>
<polygon fill="midnightblue" stroke="midnightblue" points="326.64,-19 336.64,-15.5 326.64,-12 326.64,-19"/>
</g>
<!-- Node3 -->
<g id="node3" class="node">
<title>Node3</title>
<g id="a_node3"><a xlink:href="../../d6/dbd/classlsl_1_1stream__inlet.html#a018caadb9a2c61f0c1c6388f7b617008" target="_top" xlink:title=" ">
<polygon fill="none" stroke="black" points="0,-0.5 0,-30.5 152,-30.5 152,-0.5 0,-0.5"/>
<text text-anchor="start" x="8" y="-18.5" font-family="Helvetica,sans-Serif" font-size="10.00">lsl::stream_inlet::</text>
<text text-anchor="middle" x="76" y="-7.5" font-family="Helvetica,sans-Serif" font-size="10.00">pull_chunk_numeric_structs</text>
</a>
</g>
</g>
<!-- Node2&#45;&gt;Node3 -->
<g id="edge2" class="edge">
<title>Node2&#45;&gt;Node3</title>
<path fill="none" stroke="midnightblue" d="M177.32,-15.5C169.09,-15.5 160.63,-15.5 152.28,-15.5"/>
<polygon fill="midnightblue" stroke="midnightblue" points="177.59,-19 187.59,-15.5 177.59,-12 177.59,-19"/>
</g>
</g>
</svg>
