<?xml version="1.0" encoding="UTF-8" standalone="no"?>
<!DOCTYPE svg PUBLIC "-//W3C//DTD SVG 1.1//EN"
 "http://www.w3.org/Graphics/SVG/1.1/DTD/svg11.dtd">
<!-- Generated by graphviz version 2.43.0 (0)
 -->
<!-- Title: lsl::check_error Pages: 1 -->
<svg width="604pt" height="372pt"
 viewBox="0.00 0.00 604.00 371.50" xmlns="http://www.w3.org/2000/svg" xmlns:xlink="http://www.w3.org/1999/xlink">
<g id="graph0" class="graph" transform="scale(1 1) rotate(0) translate(4 367.5)">
<title>lsl::check_error</title>
<!-- Node1 -->
<g id="node1" class="node">
<title>Node1</title>
<g id="a_node1"><a xlink:title=" ">
<polygon fill="#bfbfbf" stroke="black" points="505,-177 505,-196 596,-196 596,-177 505,-177"/>
<text text-anchor="middle" x="550.5" y="-184" font-family="Helvetica,sans-Serif" font-size="10.00">lsl::check_error</text>
</a>
</g>
</g>
<!-- Node2 -->
<g id="node2" class="node">
<title>Node2</title>
<g id="a_node2"><a xlink:href="../../d6/dbd/classlsl_1_1stream__inlet.html#ae895a8d5c10dc4072e969686fc402b5b" target="_top" xlink:title=" ">
<polygon fill="none" stroke="black" points="343,-344 343,-363 463,-363 463,-344 343,-344"/>
<text text-anchor="middle" x="403" y="-351" font-family="Helvetica,sans-Serif" font-size="10.00">lsl::stream_inlet::info</text>
</a>
</g>
</g>
<!-- Node1&#45;&gt;Node2 -->
<g id="edge1" class="edge">
<title>Node1&#45;&gt;Node2</title>
<path fill="none" stroke="midnightblue" d="M544.24,-205.95C534.67,-237.66 511.37,-300.34 469,-334.5 464.15,-338.41 458.52,-341.52 452.64,-343.98"/>
<polygon fill="midnightblue" stroke="midnightblue" points="547.67,-206.71 547.07,-196.13 540.94,-204.78 547.67,-206.71"/>
</g>
<!-- Node3 -->
<g id="node3" class="node">
<title>Node3</title>
<g id="a_node3"><a xlink:href="../../d6/dbd/classlsl_1_1stream__inlet.html#ad84029ed0662d755b0544c7652348718" target="_top" xlink:title=" ">
<polygon fill="none" stroke="black" points="352.5,-294.5 352.5,-324.5 453.5,-324.5 453.5,-294.5 352.5,-294.5"/>
<text text-anchor="start" x="360.5" y="-312.5" font-family="Helvetica,sans-Serif" font-size="10.00">lsl::stream_inlet::</text>
<text text-anchor="middle" x="403" y="-301.5" font-family="Helvetica,sans-Serif" font-size="10.00">open_stream</text>
</a>
</g>
</g>
<!-- Node1&#45;&gt;Node3 -->
<g id="edge2" class="edge">
<title>Node1&#45;&gt;Node3</title>
<path fill="none" stroke="midnightblue" d="M538.9,-204.81C525.3,-226.81 499.76,-263.5 469,-285.5 464.3,-288.86 459.08,-291.8 453.7,-294.37"/>
<polygon fill="midnightblue" stroke="midnightblue" points="541.98,-206.48 544.13,-196.1 535.98,-202.87 541.98,-206.48"/>
</g>
<!-- Node4 -->
<g id="node4" class="node">
<title>Node4</title>
<g id="a_node4"><a xlink:href="../../d6/dbd/classlsl_1_1stream__inlet.html#a97adf2cb7d60e4b47bf25217a2b17964" target="_top" xlink:title=" ">
<polygon fill="none" stroke="black" points="337,-245.5 337,-275.5 469,-275.5 469,-245.5 337,-245.5"/>
<text text-anchor="start" x="345" y="-263.5" font-family="Helvetica,sans-Serif" font-size="10.00">lsl::stream_inlet::</text>
<text text-anchor="middle" x="403" y="-252.5" font-family="Helvetica,sans-Serif" font-size="10.00">pull_chunk_multiplexed</text>
</a>
</g>
</g>
<!-- Node1&#45;&gt;Node4 -->
<g id="edge3" class="edge">
<title>Node1&#45;&gt;Node4</title>
<path fill="none" stroke="midnightblue" d="M527.5,-201.85C511.7,-212.46 489.63,-226.41 469,-236.5 462.52,-239.67 455.5,-242.67 448.56,-245.41"/>
<polygon fill="midnightblue" stroke="midnightblue" points="529.73,-204.57 536.03,-196.05 525.79,-198.79 529.73,-204.57"/>
</g>
<!-- Node5 -->
<g id="node5" class="node">
<title>Node5</title>
<g id="a_node5"><a xlink:href="../../d6/dbd/classlsl_1_1stream__inlet.html#ae8f7beaaa82d192d844abdd1531f6b9a" target="_top" xlink:title=" ">
<polygon fill="none" stroke="black" points="351.5,-196.5 351.5,-226.5 454.5,-226.5 454.5,-196.5 351.5,-196.5"/>
<text text-anchor="start" x="359.5" y="-214.5" font-family="Helvetica,sans-Serif" font-size="10.00">lsl::stream_inlet::</text>
<text text-anchor="middle" x="403" y="-203.5" font-family="Helvetica,sans-Serif" font-size="10.00">pull_numeric_raw</text>
</a>
</g>
</g>
<!-- Node1&#45;&gt;Node5 -->
<g id="edge4" class="edge">
<title>Node1&#45;&gt;Node5</title>
<path fill="none" stroke="midnightblue" d="M494.76,-195.9C481.57,-198.17 467.53,-200.58 454.54,-202.82"/>
<polygon fill="midnightblue" stroke="midnightblue" points="495.4,-199.35 504.66,-194.2 494.21,-192.45 495.4,-199.35"/>
</g>
<!-- Node8 -->
<g id="node8" class="node">
<title>Node8</title>
<g id="a_node8"><a xlink:href="../../d6/dbd/classlsl_1_1stream__inlet.html#a4a10bd640a10c317ba4a0244cc986146" target="_top" xlink:title=" ">
<polygon fill="none" stroke="black" points="352.5,-147.5 352.5,-177.5 453.5,-177.5 453.5,-147.5 352.5,-147.5"/>
<text text-anchor="start" x="360.5" y="-165.5" font-family="Helvetica,sans-Serif" font-size="10.00">lsl::stream_inlet::</text>
<text text-anchor="middle" x="403" y="-154.5" font-family="Helvetica,sans-Serif" font-size="10.00">pull_sample</text>
</a>
</g>
</g>
<!-- Node1&#45;&gt;Node8 -->
<g id="edge7" class="edge">
<title>Node1&#45;&gt;Node8</title>
<path fill="none" stroke="midnightblue" d="M494.55,-177.44C481.07,-175.21 466.72,-172.85 453.51,-170.67"/>
<polygon fill="midnightblue" stroke="midnightblue" points="494.22,-180.93 504.66,-179.1 495.36,-174.02 494.22,-180.93"/>
</g>
<!-- Node9 -->
<g id="node9" class="node">
<title>Node9</title>
<g id="a_node9"><a xlink:href="../../d6/dbd/classlsl_1_1stream__inlet.html#aaf40ba9c127a1828933613d0f2b0fc3d" target="_top" xlink:title=" ">
<polygon fill="none" stroke="black" points="348,-98.5 348,-128.5 458,-128.5 458,-98.5 348,-98.5"/>
<text text-anchor="start" x="356" y="-116.5" font-family="Helvetica,sans-Serif" font-size="10.00">lsl::stream_inlet::</text>
<text text-anchor="middle" x="403" y="-105.5" font-family="Helvetica,sans-Serif" font-size="10.00">set_postprocessing</text>
</a>
</g>
</g>
<!-- Node1&#45;&gt;Node9 -->
<g id="edge8" class="edge">
<title>Node1&#45;&gt;Node9</title>
<path fill="none" stroke="midnightblue" d="M526.52,-171.36C510.72,-161.32 489.06,-148.25 469,-138.5 461.82,-135.01 454.03,-131.66 446.41,-128.61"/>
<polygon fill="midnightblue" stroke="midnightblue" points="524.78,-174.41 535.08,-176.88 528.57,-168.52 524.78,-174.41"/>
</g>
<!-- Node10 -->
<g id="node10" class="node">
<title>Node10</title>
<g id="a_node10"><a xlink:href="../../d6/dbd/classlsl_1_1stream__inlet.html#a2774c1dbcf3fc7b17505e8814921d17c" target="_top" xlink:title=" ">
<polygon fill="none" stroke="black" points="346,-49.5 346,-79.5 460,-79.5 460,-49.5 346,-49.5"/>
<text text-anchor="start" x="354" y="-67.5" font-family="Helvetica,sans-Serif" font-size="10.00">lsl::stream_inlet::</text>
<text text-anchor="middle" x="403" y="-56.5" font-family="Helvetica,sans-Serif" font-size="10.00">smoothing_halftime</text>
</a>
</g>
</g>
<!-- Node1&#45;&gt;Node10 -->
<g id="edge9" class="edge">
<title>Node1&#45;&gt;Node10</title>
<path fill="none" stroke="midnightblue" d="M538.55,-168.31C524.76,-146.79 499.2,-111.18 469,-89.5 463.7,-85.69 457.74,-82.38 451.64,-79.52"/>
<polygon fill="midnightblue" stroke="midnightblue" points="535.61,-170.21 543.87,-176.84 541.55,-166.5 535.61,-170.21"/>
</g>
<!-- Node11 -->
<g id="node11" class="node">
<title>Node11</title>
<g id="a_node11"><a xlink:href="../../d6/dbd/classlsl_1_1stream__inlet.html#a845d95f5fc60fb9cd01fb73d3da75e94" target="_top" xlink:title=" ">
<polygon fill="none" stroke="black" points="352.5,-0.5 352.5,-30.5 453.5,-30.5 453.5,-0.5 352.5,-0.5"/>
<text text-anchor="start" x="360.5" y="-18.5" font-family="Helvetica,sans-Serif" font-size="10.00">lsl::stream_inlet::</text>
<text text-anchor="middle" x="403" y="-7.5" font-family="Helvetica,sans-Serif" font-size="10.00">time_correction</text>
</a>
</g>
</g>
<!-- Node1&#45;&gt;Node11 -->
<g id="edge10" class="edge">
<title>Node1&#45;&gt;Node11</title>
<path fill="none" stroke="midnightblue" d="M543.7,-167.24C533.47,-136.37 509.4,-75.72 469,-40.5 464.44,-36.53 459.19,-33.15 453.68,-30.29"/>
<polygon fill="midnightblue" stroke="midnightblue" points="540.38,-168.36 546.75,-176.83 547.05,-166.24 540.38,-168.36"/>
</g>
<!-- Node6 -->
<g id="node6" class="node">
<title>Node6</title>
<g id="a_node6"><a xlink:href="../../d6/dbd/classlsl_1_1stream__inlet.html#a540c7ba2c23188916ffe311c26c2c081" target="_top" xlink:title=" ">
<polygon fill="none" stroke="black" points="188,-196.5 188,-226.5 301,-226.5 301,-196.5 188,-196.5"/>
<text text-anchor="start" x="196" y="-214.5" font-family="Helvetica,sans-Serif" font-size="10.00">lsl::stream_inlet::</text>
<text text-anchor="middle" x="244.5" y="-203.5" font-family="Helvetica,sans-Serif" font-size="10.00">pull_numeric_struct</text>
</a>
</g>
</g>
<!-- Node5&#45;&gt;Node6 -->
<g id="edge5" class="edge">
<title>Node5&#45;&gt;Node6</title>
<path fill="none" stroke="midnightblue" d="M340.88,-211.5C327.8,-211.5 314.05,-211.5 301.19,-211.5"/>
<polygon fill="midnightblue" stroke="midnightblue" points="341.19,-215 351.19,-211.5 341.19,-208 341.19,-215"/>
</g>
<!-- Node7 -->
<g id="node7" class="node">
<title>Node7</title>
<g id="a_node7"><a xlink:href="../../d6/dbd/classlsl_1_1stream__inlet.html#a018caadb9a2c61f0c1c6388f7b617008" target="_top" xlink:title=" ">
<polygon fill="none" stroke="black" points="0,-196.5 0,-226.5 152,-226.5 152,-196.5 0,-196.5"/>
<text text-anchor="start" x="8" y="-214.5" font-family="Helvetica,sans-Serif" font-size="10.00">lsl::stream_inlet::</text>
<text text-anchor="middle" x="76" y="-203.5" font-family="Helvetica,sans-Serif" font-size="10.00">pull_chunk_numeric_structs</text>
</a>
</g>
</g>
<!-- Node6&#45;&gt;Node7 -->
<g id="edge6" class="edge">
<title>Node6&#45;&gt;Node7</title>
<path fill="none" stroke="midnightblue" d="M177.32,-211.5C169.09,-211.5 160.63,-211.5 152.28,-211.5"/>
<polygon fill="midnightblue" stroke="midnightblue" points="177.59,-215 187.59,-211.5 177.59,-208 177.59,-215"/>
</g>
</g>
</svg>
