<?xml version="1.0" encoding="UTF-8" standalone="no"?>
<!DOCTYPE svg PUBLIC "-//W3C//DTD SVG 1.1//EN"
 "http://www.w3.org/Graphics/SVG/1.1/DTD/svg11.dtd">
<!-- Generated by graphviz version 2.43.0 (0)
 -->
<!-- Title: lsl::xml_element::append_child Pages: 1 -->
<svg width="413pt" height="66pt"
 viewBox="0.00 0.00 413.00 66.00" xmlns="http://www.w3.org/2000/svg" xmlns:xlink="http://www.w3.org/1999/xlink">
<g id="graph0" class="graph" transform="scale(1 1) rotate(0) translate(4 62)">
<title>lsl::xml_element::append_child</title>
<!-- Node1 -->
<g id="node1" class="node">
<title>Node1</title>
<g id="a_node1"><a xlink:title="Append a child element with the specified name.">
<polygon fill="#bfbfbf" stroke="black" points="0,-14 0,-44 140,-44 140,-14 0,-14"/>
<text text-anchor="start" x="8" y="-32" font-family="Helvetica,sans-Serif" font-size="10.00">lsl::xml_element::append</text>
<text text-anchor="middle" x="70" y="-21" font-family="Helvetica,sans-Serif" font-size="10.00">_child</text>
</a>
</g>
</g>
<!-- Node2 -->
<g id="node2" class="node">
<title>Node2</title>
<g id="a_node2"><a xlink:href="../../db/df3/lsl__c_8h.html#a55229fcb1ff8d014f5459ee9526bc58a" target="_top" xlink:title=" ">
<polygon fill="none" stroke="black" points="193,-38.5 193,-57.5 291,-57.5 291,-38.5 193,-38.5"/>
<text text-anchor="middle" x="242" y="-45.5" font-family="Helvetica,sans-Serif" font-size="10.00">lsl_append_child</text>
</a>
</g>
</g>
<!-- Node1&#45;&gt;Node2 -->
<g id="edge1" class="edge">
<title>Node1&#45;&gt;Node2</title>
<path fill="none" stroke="midnightblue" d="M140.15,-36.73C154.28,-38.31 169.03,-39.96 182.74,-41.49"/>
<polygon fill="midnightblue" stroke="midnightblue" points="182.67,-45 192.99,-42.63 183.45,-38.05 182.67,-45"/>
</g>
<!-- Node3 -->
<g id="node3" class="node">
<title>Node3</title>
<g id="a_node3"><a xlink:href="../../d9/d90/classlsl_1_1xml__element.html#a2e449e85b7e763b1d0db4bb19d2eb7c2" target="_top" xlink:title="Name of the element.">
<polygon fill="none" stroke="black" points="176,-0.5 176,-19.5 308,-19.5 308,-0.5 176,-0.5"/>
<text text-anchor="middle" x="242" y="-7.5" font-family="Helvetica,sans-Serif" font-size="10.00">lsl::xml_element::name</text>
</a>
</g>
</g>
<!-- Node1&#45;&gt;Node3 -->
<g id="edge2" class="edge">
<title>Node1&#45;&gt;Node3</title>
<path fill="none" stroke="midnightblue" d="M140.15,-21.27C148.6,-20.33 157.28,-19.36 165.82,-18.4"/>
<polygon fill="midnightblue" stroke="midnightblue" points="166.21,-21.88 175.76,-17.29 165.43,-14.92 166.21,-21.88"/>
</g>
<!-- Node4 -->
<g id="node4" class="node">
<title>Node4</title>
<g id="a_node4"><a xlink:href="../../db/df3/lsl__c_8h.html#a5af95d29948ec4e56242dcf24d8c974c" target="_top" xlink:title=" ">
<polygon fill="none" stroke="black" points="344,-0.5 344,-19.5 405,-19.5 405,-0.5 344,-0.5"/>
<text text-anchor="middle" x="374.5" y="-7.5" font-family="Helvetica,sans-Serif" font-size="10.00">lsl_name</text>
</a>
</g>
</g>
<!-- Node3&#45;&gt;Node4 -->
<g id="edge3" class="edge">
<title>Node3&#45;&gt;Node4</title>
<path fill="none" stroke="midnightblue" d="M308.25,-10C316.93,-10 325.62,-10 333.69,-10"/>
<polygon fill="midnightblue" stroke="midnightblue" points="333.89,-13.5 343.89,-10 333.89,-6.5 333.89,-13.5"/>
</g>
</g>
</svg>
