<?xml version="1.0" encoding="UTF-8" standalone="no"?>
<!DOCTYPE svg PUBLIC "-//W3C//DTD SVG 1.1//EN"
 "http://www.w3.org/Graphics/SVG/1.1/DTD/svg11.dtd">
<!-- Generated by graphviz version 2.43.0 (0)
 -->
<!-- Title: lsl::xml_element::remove_child Pages: 1 -->
<svg width="415pt" height="66pt"
 viewBox="0.00 0.00 415.00 66.00" xmlns="http://www.w3.org/2000/svg" xmlns:xlink="http://www.w3.org/1999/xlink">
<g id="graph0" class="graph" transform="scale(1 1) rotate(0) translate(4 62)">
<title>lsl::xml_element::remove_child</title>
<!-- Node1 -->
<g id="node1" class="node">
<title>Node1</title>
<g id="a_node1"><a xlink:title="Remove a child element with the specified name.">
<polygon fill="#bfbfbf" stroke="black" points="0,-14 0,-44 142,-44 142,-14 0,-14"/>
<text text-anchor="start" x="8" y="-32" font-family="Helvetica,sans-Serif" font-size="10.00">lsl::xml_element::remove</text>
<text text-anchor="middle" x="71" y="-21" font-family="Helvetica,sans-Serif" font-size="10.00">_child</text>
</a>
</g>
</g>
<!-- Node2 -->
<g id="node2" class="node">
<title>Node2</title>
<g id="a_node2"><a xlink:href="../../db/df3/lsl__c_8h.html#a854a222cf8909b0b7ec901adbd5f6b13" target="_top" xlink:title=" ">
<polygon fill="none" stroke="black" points="189,-38.5 189,-57.5 299,-57.5 299,-38.5 189,-38.5"/>
<text text-anchor="middle" x="244" y="-45.5" font-family="Helvetica,sans-Serif" font-size="10.00">lsl_remove_child_n</text>
</a>
</g>
</g>
<!-- Node1&#45;&gt;Node2 -->
<g id="edge1" class="edge">
<title>Node1&#45;&gt;Node2</title>
<path fill="none" stroke="midnightblue" d="M142.05,-36.78C154.1,-38.12 166.58,-39.51 178.48,-40.83"/>
<polygon fill="midnightblue" stroke="midnightblue" points="178.44,-44.35 188.77,-41.97 179.22,-37.39 178.44,-44.35"/>
</g>
<!-- Node3 -->
<g id="node3" class="node">
<title>Node3</title>
<g id="a_node3"><a xlink:href="../../d9/d90/classlsl_1_1xml__element.html#a2e449e85b7e763b1d0db4bb19d2eb7c2" target="_top" xlink:title="Name of the element.">
<polygon fill="none" stroke="black" points="178,-0.5 178,-19.5 310,-19.5 310,-0.5 178,-0.5"/>
<text text-anchor="middle" x="244" y="-7.5" font-family="Helvetica,sans-Serif" font-size="10.00">lsl::xml_element::name</text>
</a>
</g>
</g>
<!-- Node1&#45;&gt;Node3 -->
<g id="edge2" class="edge">
<title>Node1&#45;&gt;Node3</title>
<path fill="none" stroke="midnightblue" d="M142.05,-21.22C150.53,-20.27 159.23,-19.31 167.78,-18.36"/>
<polygon fill="midnightblue" stroke="midnightblue" points="168.19,-21.83 177.74,-17.25 167.42,-14.88 168.19,-21.83"/>
</g>
<!-- Node4 -->
<g id="node4" class="node">
<title>Node4</title>
<g id="a_node4"><a xlink:href="../../db/df3/lsl__c_8h.html#a5af95d29948ec4e56242dcf24d8c974c" target="_top" xlink:title=" ">
<polygon fill="none" stroke="black" points="346,-0.5 346,-19.5 407,-19.5 407,-0.5 346,-0.5"/>
<text text-anchor="middle" x="376.5" y="-7.5" font-family="Helvetica,sans-Serif" font-size="10.00">lsl_name</text>
</a>
</g>
</g>
<!-- Node3&#45;&gt;Node4 -->
<g id="edge3" class="edge">
<title>Node3&#45;&gt;Node4</title>
<path fill="none" stroke="midnightblue" d="M310.25,-10C318.93,-10 327.62,-10 335.69,-10"/>
<polygon fill="midnightblue" stroke="midnightblue" points="335.89,-13.5 345.89,-10 335.89,-6.5 335.89,-13.5"/>
</g>
</g>
</svg>
