<?xml version="1.0" encoding="UTF-8" standalone="no"?>
<!DOCTYPE svg PUBLIC "-//W3C//DTD SVG 1.1//EN"
 "http://www.w3.org/Graphics/SVG/1.1/DTD/svg11.dtd">
<!-- Generated by graphviz version 2.43.0 (0)
 -->
<!-- Title: lsl::xml_element::value Pages: 1 -->
<svg width="319pt" height="137pt"
 viewBox="0.00 0.00 319.00 137.00" xmlns="http://www.w3.org/2000/svg" xmlns:xlink="http://www.w3.org/1999/xlink">
<g id="graph0" class="graph" transform="scale(1 1) rotate(0) translate(4 133)">
<title>lsl::xml_element::value</title>
<!-- Node1 -->
<g id="node1" class="node">
<title>Node1</title>
<g id="a_node1"><a xlink:title="Value of the element.">
<polygon fill="#bfbfbf" stroke="black" points="180,-55 180,-74 311,-74 311,-55 180,-55"/>
<text text-anchor="middle" x="245.5" y="-62" font-family="Helvetica,sans-Serif" font-size="10.00">lsl::xml_element::value</text>
</a>
</g>
</g>
<!-- Node2 -->
<g id="node2" class="node">
<title>Node2</title>
<g id="a_node2"><a xlink:href="../../d9/d90/classlsl_1_1xml__element.html#a6a162d1b57049f5ecab6b68207a71d53" target="_top" xlink:title=" ">
<polygon fill="none" stroke="black" points="2,-98.5 2,-128.5 142,-128.5 142,-98.5 2,-98.5"/>
<text text-anchor="start" x="10" y="-116.5" font-family="Helvetica,sans-Serif" font-size="10.00">lsl::xml_element::append</text>
<text text-anchor="middle" x="72" y="-105.5" font-family="Helvetica,sans-Serif" font-size="10.00">_child_value</text>
</a>
</g>
</g>
<!-- Node1&#45;&gt;Node2 -->
<g id="edge1" class="edge">
<title>Node1&#45;&gt;Node2</title>
<path fill="none" stroke="midnightblue" d="M201.22,-76.87C178.26,-83.43 149.86,-91.54 125.63,-98.46"/>
<polygon fill="midnightblue" stroke="midnightblue" points="202.37,-80.18 211.03,-74.06 200.45,-73.45 202.37,-80.18"/>
</g>
<!-- Node3 -->
<g id="node3" class="node">
<title>Node3</title>
<g id="a_node3"><a xlink:href="../../d9/d90/classlsl_1_1xml__element.html#a3e7fde09def517574df99c71a0a05d23" target="_top" xlink:title=" ">
<polygon fill="none" stroke="black" points="0,-49.5 0,-79.5 144,-79.5 144,-49.5 0,-49.5"/>
<text text-anchor="start" x="8" y="-67.5" font-family="Helvetica,sans-Serif" font-size="10.00">lsl::xml_element::prepend</text>
<text text-anchor="middle" x="72" y="-56.5" font-family="Helvetica,sans-Serif" font-size="10.00">_child_value</text>
</a>
</g>
</g>
<!-- Node1&#45;&gt;Node3 -->
<g id="edge2" class="edge">
<title>Node1&#45;&gt;Node3</title>
<path fill="none" stroke="midnightblue" d="M169.51,-64.5C161.12,-64.5 152.58,-64.5 144.24,-64.5"/>
<polygon fill="midnightblue" stroke="midnightblue" points="169.66,-68 179.66,-64.5 169.66,-61 169.66,-68"/>
</g>
<!-- Node4 -->
<g id="node4" class="node">
<title>Node4</title>
<g id="a_node4"><a xlink:href="../../d9/d90/classlsl_1_1xml__element.html#a6fe187e03b36cf8fd5f9d3892e99453f" target="_top" xlink:title=" ">
<polygon fill="none" stroke="black" points="12.5,-0.5 12.5,-30.5 131.5,-30.5 131.5,-0.5 12.5,-0.5"/>
<text text-anchor="start" x="20.5" y="-18.5" font-family="Helvetica,sans-Serif" font-size="10.00">lsl::xml_element::set</text>
<text text-anchor="middle" x="72" y="-7.5" font-family="Helvetica,sans-Serif" font-size="10.00">_child_value</text>
</a>
</g>
</g>
<!-- Node1&#45;&gt;Node4 -->
<g id="edge3" class="edge">
<title>Node1&#45;&gt;Node4</title>
<path fill="none" stroke="midnightblue" d="M201.22,-52.13C178.26,-45.57 149.86,-37.46 125.63,-30.54"/>
<polygon fill="midnightblue" stroke="midnightblue" points="200.45,-55.55 211.03,-54.94 202.37,-48.82 200.45,-55.55"/>
</g>
</g>
</svg>
