<?xml version="1.0" encoding="UTF-8" standalone="no"?>
<!DOCTYPE svg PUBLIC "-//W3C//DTD SVG 1.1//EN"
 "http://www.w3.org/Graphics/SVG/1.1/DTD/svg11.dtd">
<!-- Generated by graphviz version 2.43.0 (0)
 -->
<!-- Title: lsl::xml_element::set_child_value Pages: 1 -->
<svg width="392pt" height="104pt"
 viewBox="0.00 0.00 392.00 104.00" xmlns="http://www.w3.org/2000/svg" xmlns:xlink="http://www.w3.org/1999/xlink">
<g id="graph0" class="graph" transform="scale(1 1) rotate(0) translate(4 100)">
<title>lsl::xml_element::set_child_value</title>
<!-- Node1 -->
<g id="node1" class="node">
<title>Node1</title>
<g id="a_node1"><a xlink:title=" ">
<polygon fill="#bfbfbf" stroke="black" points="0,-33 0,-63 119,-63 119,-33 0,-33"/>
<text text-anchor="start" x="8" y="-51" font-family="Helvetica,sans-Serif" font-size="10.00">lsl::xml_element::set</text>
<text text-anchor="middle" x="59.5" y="-40" font-family="Helvetica,sans-Serif" font-size="10.00">_child_value</text>
</a>
</g>
</g>
<!-- Node2 -->
<g id="node2" class="node">
<title>Node2</title>
<g id="a_node2"><a xlink:href="../../db/df3/lsl__c_8h.html#ad8c1b9bd37107e1b19b0f7b6ea4c4bc5" target="_top" xlink:title=" ">
<polygon fill="none" stroke="black" points="166.5,-76.5 166.5,-95.5 275.5,-95.5 275.5,-76.5 166.5,-76.5"/>
<text text-anchor="middle" x="221" y="-83.5" font-family="Helvetica,sans-Serif" font-size="10.00">lsl_set_child_value</text>
</a>
</g>
</g>
<!-- Node1&#45;&gt;Node2 -->
<g id="edge1" class="edge">
<title>Node1&#45;&gt;Node2</title>
<path fill="none" stroke="midnightblue" d="M119.44,-62.04C135.89,-65.96 153.61,-70.18 169.53,-73.98"/>
<polygon fill="midnightblue" stroke="midnightblue" points="169.16,-77.48 179.7,-76.4 170.78,-70.68 169.16,-77.48"/>
</g>
<!-- Node3 -->
<g id="node3" class="node">
<title>Node3</title>
<g id="a_node3"><a xlink:href="../../d9/d90/classlsl_1_1xml__element.html#a2e449e85b7e763b1d0db4bb19d2eb7c2" target="_top" xlink:title="Name of the element.">
<polygon fill="none" stroke="black" points="155,-38.5 155,-57.5 287,-57.5 287,-38.5 155,-38.5"/>
<text text-anchor="middle" x="221" y="-45.5" font-family="Helvetica,sans-Serif" font-size="10.00">lsl::xml_element::name</text>
</a>
</g>
</g>
<!-- Node1&#45;&gt;Node3 -->
<g id="edge2" class="edge">
<title>Node1&#45;&gt;Node3</title>
<path fill="none" stroke="midnightblue" d="M119.44,-48C127.64,-48 136.16,-48 144.61,-48"/>
<polygon fill="midnightblue" stroke="midnightblue" points="144.86,-51.5 154.86,-48 144.86,-44.5 144.86,-51.5"/>
</g>
<!-- Node5 -->
<g id="node5" class="node">
<title>Node5</title>
<g id="a_node5"><a xlink:href="../../d9/d90/classlsl_1_1xml__element.html#a1a5e666b35c5d7262e4ffbda86b57f73" target="_top" xlink:title="Value of the element.">
<polygon fill="none" stroke="black" points="155.5,-0.5 155.5,-19.5 286.5,-19.5 286.5,-0.5 155.5,-0.5"/>
<text text-anchor="middle" x="221" y="-7.5" font-family="Helvetica,sans-Serif" font-size="10.00">lsl::xml_element::value</text>
</a>
</g>
</g>
<!-- Node1&#45;&gt;Node5 -->
<g id="edge4" class="edge">
<title>Node1&#45;&gt;Node5</title>
<path fill="none" stroke="midnightblue" d="M119.44,-33.96C135.89,-30.04 153.61,-25.82 169.53,-22.02"/>
<polygon fill="midnightblue" stroke="midnightblue" points="170.78,-25.32 179.7,-19.6 169.16,-18.52 170.78,-25.32"/>
</g>
<!-- Node4 -->
<g id="node4" class="node">
<title>Node4</title>
<g id="a_node4"><a xlink:href="../../db/df3/lsl__c_8h.html#a5af95d29948ec4e56242dcf24d8c974c" target="_top" xlink:title=" ">
<polygon fill="none" stroke="black" points="323,-38.5 323,-57.5 384,-57.5 384,-38.5 323,-38.5"/>
<text text-anchor="middle" x="353.5" y="-45.5" font-family="Helvetica,sans-Serif" font-size="10.00">lsl_name</text>
</a>
</g>
</g>
<!-- Node3&#45;&gt;Node4 -->
<g id="edge3" class="edge">
<title>Node3&#45;&gt;Node4</title>
<path fill="none" stroke="midnightblue" d="M287.25,-48C295.93,-48 304.62,-48 312.69,-48"/>
<polygon fill="midnightblue" stroke="midnightblue" points="312.89,-51.5 322.89,-48 312.89,-44.5 312.89,-51.5"/>
</g>
<!-- Node6 -->
<g id="node6" class="node">
<title>Node6</title>
<g id="a_node6"><a xlink:href="../../db/df3/lsl__c_8h.html#a96ec833e4b9e6ee9c263bd903f2f7241" target="_top" xlink:title=" ">
<polygon fill="none" stroke="black" points="323.5,-0.5 323.5,-19.5 383.5,-19.5 383.5,-0.5 323.5,-0.5"/>
<text text-anchor="middle" x="353.5" y="-7.5" font-family="Helvetica,sans-Serif" font-size="10.00">lsl_value</text>
</a>
</g>
</g>
<!-- Node5&#45;&gt;Node6 -->
<g id="edge5" class="edge">
<title>Node5&#45;&gt;Node6</title>
<path fill="none" stroke="midnightblue" d="M286.87,-10C295.86,-10 304.87,-10 313.2,-10"/>
<polygon fill="midnightblue" stroke="midnightblue" points="313.34,-13.5 323.34,-10 313.34,-6.5 313.34,-13.5"/>
</g>
</g>
</svg>
