<?xml version="1.0" encoding="UTF-8" standalone="no"?>
<!DOCTYPE svg PUBLIC "-//W3C//DTD SVG 1.1//EN"
 "http://www.w3.org/Graphics/SVG/1.1/DTD/svg11.dtd">
<!-- Generated by graphviz version 2.43.0 (0)
 -->
<!-- Title: lsl::xml_element::append_child_value Pages: 1 -->
<svg width="413pt" height="104pt"
 viewBox="0.00 0.00 413.00 104.00" xmlns="http://www.w3.org/2000/svg" xmlns:xlink="http://www.w3.org/1999/xlink">
<g id="graph0" class="graph" transform="scale(1 1) rotate(0) translate(4 100)">
<title>lsl::xml_element::append_child_value</title>
<!-- Node1 -->
<g id="node1" class="node">
<title>Node1</title>
<g id="a_node1"><a xlink:title=" ">
<polygon fill="#bfbfbf" stroke="black" points="0,-33 0,-63 140,-63 140,-33 0,-33"/>
<text text-anchor="start" x="8" y="-51" font-family="Helvetica,sans-Serif" font-size="10.00">lsl::xml_element::append</text>
<text text-anchor="middle" x="70" y="-40" font-family="Helvetica,sans-Serif" font-size="10.00">_child_value</text>
</a>
</g>
</g>
<!-- Node2 -->
<g id="node2" class="node">
<title>Node2</title>
<g id="a_node2"><a xlink:href="../../db/df3/lsl__c_8h.html#afb51a7b796ce958254c209e2dbca2453" target="_top" xlink:title=" ">
<polygon fill="none" stroke="black" points="177,-76.5 177,-95.5 307,-95.5 307,-76.5 177,-76.5"/>
<text text-anchor="middle" x="242" y="-83.5" font-family="Helvetica,sans-Serif" font-size="10.00">lsl_append_child_value</text>
</a>
</g>
</g>
<!-- Node1&#45;&gt;Node2 -->
<g id="edge1" class="edge">
<title>Node1&#45;&gt;Node2</title>
<path fill="none" stroke="midnightblue" d="M138.19,-63.02C154.79,-66.73 172.33,-70.65 188.14,-74.18"/>
<polygon fill="midnightblue" stroke="midnightblue" points="187.72,-77.68 198.25,-76.44 189.25,-70.85 187.72,-77.68"/>
</g>
<!-- Node3 -->
<g id="node3" class="node">
<title>Node3</title>
<g id="a_node3"><a xlink:href="../../d9/d90/classlsl_1_1xml__element.html#a2e449e85b7e763b1d0db4bb19d2eb7c2" target="_top" xlink:title="Name of the element.">
<polygon fill="none" stroke="black" points="176,-38.5 176,-57.5 308,-57.5 308,-38.5 176,-38.5"/>
<text text-anchor="middle" x="242" y="-45.5" font-family="Helvetica,sans-Serif" font-size="10.00">lsl::xml_element::name</text>
</a>
</g>
</g>
<!-- Node1&#45;&gt;Node3 -->
<g id="edge2" class="edge">
<title>Node1&#45;&gt;Node3</title>
<path fill="none" stroke="midnightblue" d="M140.15,-48C148.51,-48 157.09,-48 165.54,-48"/>
<polygon fill="midnightblue" stroke="midnightblue" points="165.76,-51.5 175.76,-48 165.76,-44.5 165.76,-51.5"/>
</g>
<!-- Node5 -->
<g id="node5" class="node">
<title>Node5</title>
<g id="a_node5"><a xlink:href="../../d9/d90/classlsl_1_1xml__element.html#a1a5e666b35c5d7262e4ffbda86b57f73" target="_top" xlink:title="Value of the element.">
<polygon fill="none" stroke="black" points="176.5,-0.5 176.5,-19.5 307.5,-19.5 307.5,-0.5 176.5,-0.5"/>
<text text-anchor="middle" x="242" y="-7.5" font-family="Helvetica,sans-Serif" font-size="10.00">lsl::xml_element::value</text>
</a>
</g>
</g>
<!-- Node1&#45;&gt;Node5 -->
<g id="edge4" class="edge">
<title>Node1&#45;&gt;Node5</title>
<path fill="none" stroke="midnightblue" d="M138.19,-32.98C154.79,-29.27 172.33,-25.35 188.14,-21.82"/>
<polygon fill="midnightblue" stroke="midnightblue" points="189.25,-25.15 198.25,-19.56 187.72,-18.32 189.25,-25.15"/>
</g>
<!-- Node4 -->
<g id="node4" class="node">
<title>Node4</title>
<g id="a_node4"><a xlink:href="../../db/df3/lsl__c_8h.html#a5af95d29948ec4e56242dcf24d8c974c" target="_top" xlink:title=" ">
<polygon fill="none" stroke="black" points="344,-38.5 344,-57.5 405,-57.5 405,-38.5 344,-38.5"/>
<text text-anchor="middle" x="374.5" y="-45.5" font-family="Helvetica,sans-Serif" font-size="10.00">lsl_name</text>
</a>
</g>
</g>
<!-- Node3&#45;&gt;Node4 -->
<g id="edge3" class="edge">
<title>Node3&#45;&gt;Node4</title>
<path fill="none" stroke="midnightblue" d="M308.25,-48C316.93,-48 325.62,-48 333.69,-48"/>
<polygon fill="midnightblue" stroke="midnightblue" points="333.89,-51.5 343.89,-48 333.89,-44.5 333.89,-51.5"/>
</g>
<!-- Node6 -->
<g id="node6" class="node">
<title>Node6</title>
<g id="a_node6"><a xlink:href="../../db/df3/lsl__c_8h.html#a96ec833e4b9e6ee9c263bd903f2f7241" target="_top" xlink:title=" ">
<polygon fill="none" stroke="black" points="344.5,-0.5 344.5,-19.5 404.5,-19.5 404.5,-0.5 344.5,-0.5"/>
<text text-anchor="middle" x="374.5" y="-7.5" font-family="Helvetica,sans-Serif" font-size="10.00">lsl_value</text>
</a>
</g>
</g>
<!-- Node5&#45;&gt;Node6 -->
<g id="edge5" class="edge">
<title>Node5&#45;&gt;Node6</title>
<path fill="none" stroke="midnightblue" d="M307.87,-10C316.86,-10 325.87,-10 334.2,-10"/>
<polygon fill="midnightblue" stroke="midnightblue" points="334.34,-13.5 344.34,-10 334.34,-6.5 334.34,-13.5"/>
</g>
</g>
</svg>
