<?xml version="1.0" encoding="UTF-8" standalone="no"?>
<!DOCTYPE svg PUBLIC "-//W3C//DTD SVG 1.1//EN"
 "http://www.w3.org/Graphics/SVG/1.1/DTD/svg11.dtd">
<!-- Generated by graphviz version 2.43.0 (0)
 -->
<!-- Title: lsl::xml_element::prepend_child_value Pages: 1 -->
<svg width="419pt" height="104pt"
 viewBox="0.00 0.00 419.00 104.00" xmlns="http://www.w3.org/2000/svg" xmlns:xlink="http://www.w3.org/1999/xlink">
<g id="graph0" class="graph" transform="scale(1 1) rotate(0) translate(4 100)">
<title>lsl::xml_element::prepend_child_value</title>
<!-- Node1 -->
<g id="node1" class="node">
<title>Node1</title>
<g id="a_node1"><a xlink:title=" ">
<polygon fill="#bfbfbf" stroke="black" points="0,-33 0,-63 144,-63 144,-33 0,-33"/>
<text text-anchor="start" x="8" y="-51" font-family="Helvetica,sans-Serif" font-size="10.00">lsl::xml_element::prepend</text>
<text text-anchor="middle" x="72" y="-40" font-family="Helvetica,sans-Serif" font-size="10.00">_child_value</text>
</a>
</g>
</g>
<!-- Node2 -->
<g id="node2" class="node">
<title>Node2</title>
<g id="a_node2"><a xlink:href="../../db/df3/lsl__c_8h.html#a2af93b773f826f19f1a9dd28d5db0fd9" target="_top" xlink:title=" ">
<polygon fill="none" stroke="black" points="180,-76.5 180,-95.5 314,-95.5 314,-76.5 180,-76.5"/>
<text text-anchor="middle" x="247" y="-83.5" font-family="Helvetica,sans-Serif" font-size="10.00">lsl_prepend_child_value</text>
</a>
</g>
</g>
<!-- Node1&#45;&gt;Node2 -->
<g id="edge1" class="edge">
<title>Node1&#45;&gt;Node2</title>
<path fill="none" stroke="midnightblue" d="M141.37,-63.02C158.5,-66.78 176.62,-70.76 192.89,-74.33"/>
<polygon fill="midnightblue" stroke="midnightblue" points="192.23,-77.77 202.75,-76.5 193.73,-70.94 192.23,-77.77"/>
</g>
<!-- Node3 -->
<g id="node3" class="node">
<title>Node3</title>
<g id="a_node3"><a xlink:href="../../d9/d90/classlsl_1_1xml__element.html#a2e449e85b7e763b1d0db4bb19d2eb7c2" target="_top" xlink:title="Name of the element.">
<polygon fill="none" stroke="black" points="181,-38.5 181,-57.5 313,-57.5 313,-38.5 181,-38.5"/>
<text text-anchor="middle" x="247" y="-45.5" font-family="Helvetica,sans-Serif" font-size="10.00">lsl::xml_element::name</text>
</a>
</g>
</g>
<!-- Node1&#45;&gt;Node3 -->
<g id="edge2" class="edge">
<title>Node1&#45;&gt;Node3</title>
<path fill="none" stroke="midnightblue" d="M144.36,-48C153.06,-48 161.97,-48 170.72,-48"/>
<polygon fill="midnightblue" stroke="midnightblue" points="170.9,-51.5 180.9,-48 170.9,-44.5 170.9,-51.5"/>
</g>
<!-- Node5 -->
<g id="node5" class="node">
<title>Node5</title>
<g id="a_node5"><a xlink:href="../../d9/d90/classlsl_1_1xml__element.html#a1a5e666b35c5d7262e4ffbda86b57f73" target="_top" xlink:title="Value of the element.">
<polygon fill="none" stroke="black" points="181.5,-0.5 181.5,-19.5 312.5,-19.5 312.5,-0.5 181.5,-0.5"/>
<text text-anchor="middle" x="247" y="-7.5" font-family="Helvetica,sans-Serif" font-size="10.00">lsl::xml_element::value</text>
</a>
</g>
</g>
<!-- Node1&#45;&gt;Node5 -->
<g id="edge4" class="edge">
<title>Node1&#45;&gt;Node5</title>
<path fill="none" stroke="midnightblue" d="M141.37,-32.98C158.5,-29.22 176.62,-25.24 192.89,-21.67"/>
<polygon fill="midnightblue" stroke="midnightblue" points="193.73,-25.06 202.75,-19.5 192.23,-18.23 193.73,-25.06"/>
</g>
<!-- Node4 -->
<g id="node4" class="node">
<title>Node4</title>
<g id="a_node4"><a xlink:href="../../db/df3/lsl__c_8h.html#a5af95d29948ec4e56242dcf24d8c974c" target="_top" xlink:title=" ">
<polygon fill="none" stroke="black" points="350,-38.5 350,-57.5 411,-57.5 411,-38.5 350,-38.5"/>
<text text-anchor="middle" x="380.5" y="-45.5" font-family="Helvetica,sans-Serif" font-size="10.00">lsl_name</text>
</a>
</g>
</g>
<!-- Node3&#45;&gt;Node4 -->
<g id="edge3" class="edge">
<title>Node3&#45;&gt;Node4</title>
<path fill="none" stroke="midnightblue" d="M313.36,-48C322.34,-48 331.32,-48 339.65,-48"/>
<polygon fill="midnightblue" stroke="midnightblue" points="339.79,-51.5 349.79,-48 339.79,-44.5 339.79,-51.5"/>
</g>
<!-- Node6 -->
<g id="node6" class="node">
<title>Node6</title>
<g id="a_node6"><a xlink:href="../../db/df3/lsl__c_8h.html#a96ec833e4b9e6ee9c263bd903f2f7241" target="_top" xlink:title=" ">
<polygon fill="none" stroke="black" points="350.5,-0.5 350.5,-19.5 410.5,-19.5 410.5,-0.5 350.5,-0.5"/>
<text text-anchor="middle" x="380.5" y="-7.5" font-family="Helvetica,sans-Serif" font-size="10.00">lsl_value</text>
</a>
</g>
</g>
<!-- Node5&#45;&gt;Node6 -->
<g id="edge5" class="edge">
<title>Node5&#45;&gt;Node6</title>
<path fill="none" stroke="midnightblue" d="M312.59,-10C322.01,-10 331.47,-10 340.18,-10"/>
<polygon fill="midnightblue" stroke="midnightblue" points="340.38,-13.5 350.38,-10 340.38,-6.5 340.38,-13.5"/>
</g>
</g>
</svg>
