<?xml version="1.0" encoding="UTF-8" standalone="no"?>
<!DOCTYPE svg PUBLIC "-//W3C//DTD SVG 1.1//EN"
 "http://www.w3.org/Graphics/SVG/1.1/DTD/svg11.dtd">
<!-- Generated by graphviz version 2.43.0 (0)
 -->
<!-- Title: lsl::xml_element::previous_sibling Pages: 1 -->
<svg width="419pt" height="66pt"
 viewBox="0.00 0.00 419.00 66.00" xmlns="http://www.w3.org/2000/svg" xmlns:xlink="http://www.w3.org/1999/xlink">
<g id="graph0" class="graph" transform="scale(1 1) rotate(0) translate(4 62)">
<title>lsl::xml_element::previous_sibling</title>
<!-- Node1 -->
<g id="node1" class="node">
<title>Node1</title>
<g id="a_node1"><a xlink:title="Get the previous sibling with the specified name.">
<polygon fill="#bfbfbf" stroke="black" points="0,-14 0,-44 146,-44 146,-14 0,-14"/>
<text text-anchor="start" x="8" y="-32" font-family="Helvetica,sans-Serif" font-size="10.00">lsl::xml_element::previous</text>
<text text-anchor="middle" x="73" y="-21" font-family="Helvetica,sans-Serif" font-size="10.00">_sibling</text>
</a>
</g>
</g>
<!-- Node2 -->
<g id="node2" class="node">
<title>Node2</title>
<g id="a_node2"><a xlink:href="../../db/df3/lsl__c_8h.html#a9a6e5c2bcf2aa1555c30996d536e53ad" target="_top" xlink:title=" ">
<polygon fill="none" stroke="black" points="186,-38.5 186,-57.5 310,-57.5 310,-38.5 186,-38.5"/>
<text text-anchor="middle" x="248" y="-45.5" font-family="Helvetica,sans-Serif" font-size="10.00">lsl_previous_sibling_n</text>
</a>
</g>
</g>
<!-- Node1&#45;&gt;Node2 -->
<g id="edge1" class="edge">
<title>Node1&#45;&gt;Node2</title>
<path fill="none" stroke="midnightblue" d="M146.11,-36.92C155.95,-38 166.05,-39.11 175.87,-40.19"/>
<polygon fill="midnightblue" stroke="midnightblue" points="175.66,-43.69 185.99,-41.3 176.43,-36.73 175.66,-43.69"/>
</g>
<!-- Node3 -->
<g id="node3" class="node">
<title>Node3</title>
<g id="a_node3"><a xlink:href="../../d9/d90/classlsl_1_1xml__element.html#a2e449e85b7e763b1d0db4bb19d2eb7c2" target="_top" xlink:title="Name of the element.">
<polygon fill="none" stroke="black" points="182,-0.5 182,-19.5 314,-19.5 314,-0.5 182,-0.5"/>
<text text-anchor="middle" x="248" y="-7.5" font-family="Helvetica,sans-Serif" font-size="10.00">lsl::xml_element::name</text>
</a>
</g>
</g>
<!-- Node1&#45;&gt;Node3 -->
<g id="edge2" class="edge">
<title>Node1&#45;&gt;Node3</title>
<path fill="none" stroke="midnightblue" d="M146.11,-21.08C154.64,-20.14 163.37,-19.19 171.94,-18.24"/>
<polygon fill="midnightblue" stroke="midnightblue" points="172.35,-21.72 181.9,-17.15 171.58,-14.76 172.35,-21.72"/>
</g>
<!-- Node4 -->
<g id="node4" class="node">
<title>Node4</title>
<g id="a_node4"><a xlink:href="../../db/df3/lsl__c_8h.html#a5af95d29948ec4e56242dcf24d8c974c" target="_top" xlink:title=" ">
<polygon fill="none" stroke="black" points="350,-0.5 350,-19.5 411,-19.5 411,-0.5 350,-0.5"/>
<text text-anchor="middle" x="380.5" y="-7.5" font-family="Helvetica,sans-Serif" font-size="10.00">lsl_name</text>
</a>
</g>
</g>
<!-- Node3&#45;&gt;Node4 -->
<g id="edge3" class="edge">
<title>Node3&#45;&gt;Node4</title>
<path fill="none" stroke="midnightblue" d="M314.25,-10C322.93,-10 331.62,-10 339.69,-10"/>
<polygon fill="midnightblue" stroke="midnightblue" points="339.89,-13.5 349.89,-10 339.89,-6.5 339.89,-13.5"/>
</g>
</g>
</svg>
