<?xml version="1.0" encoding="UTF-8" standalone="no"?>
<!DOCTYPE svg PUBLIC "-//W3C//DTD SVG 1.1//EN"
 "http://www.w3.org/Graphics/SVG/1.1/DTD/svg11.dtd">
<!-- Generated by graphviz version 2.43.0 (0)
 -->
<!-- Title: lsl::xml_element::next_sibling Pages: 1 -->
<svg width="399pt" height="66pt"
 viewBox="0.00 0.00 399.00 66.00" xmlns="http://www.w3.org/2000/svg" xmlns:xlink="http://www.w3.org/1999/xlink">
<g id="graph0" class="graph" transform="scale(1 1) rotate(0) translate(4 62)">
<title>lsl::xml_element::next_sibling</title>
<!-- Node1 -->
<g id="node1" class="node">
<title>Node1</title>
<g id="a_node1"><a xlink:title="Get the next sibling with the specified name.">
<polygon fill="#bfbfbf" stroke="black" points="0,-14 0,-44 126,-44 126,-14 0,-14"/>
<text text-anchor="start" x="8" y="-32" font-family="Helvetica,sans-Serif" font-size="10.00">lsl::xml_element::next</text>
<text text-anchor="middle" x="63" y="-21" font-family="Helvetica,sans-Serif" font-size="10.00">_sibling</text>
</a>
</g>
</g>
<!-- Node2 -->
<g id="node2" class="node">
<title>Node2</title>
<g id="a_node2"><a xlink:href="../../db/df3/lsl__c_8h.html#aea479a05659e31e6248597ac04d189ea" target="_top" xlink:title=" ">
<polygon fill="none" stroke="black" points="176,-38.5 176,-57.5 280,-57.5 280,-38.5 176,-38.5"/>
<text text-anchor="middle" x="228" y="-45.5" font-family="Helvetica,sans-Serif" font-size="10.00">lsl_next_sibling_n</text>
</a>
</g>
</g>
<!-- Node1&#45;&gt;Node2 -->
<g id="edge1" class="edge">
<title>Node1&#45;&gt;Node2</title>
<path fill="none" stroke="midnightblue" d="M126.09,-36.24C139.08,-37.75 152.77,-39.35 165.73,-40.86"/>
<polygon fill="midnightblue" stroke="midnightblue" points="165.6,-44.37 175.94,-42.05 166.41,-37.41 165.6,-44.37"/>
</g>
<!-- Node3 -->
<g id="node3" class="node">
<title>Node3</title>
<g id="a_node3"><a xlink:href="../../d9/d90/classlsl_1_1xml__element.html#a2e449e85b7e763b1d0db4bb19d2eb7c2" target="_top" xlink:title="Name of the element.">
<polygon fill="none" stroke="black" points="162,-0.5 162,-19.5 294,-19.5 294,-0.5 162,-0.5"/>
<text text-anchor="middle" x="228" y="-7.5" font-family="Helvetica,sans-Serif" font-size="10.00">lsl::xml_element::name</text>
</a>
</g>
</g>
<!-- Node1&#45;&gt;Node3 -->
<g id="edge2" class="edge">
<title>Node1&#45;&gt;Node3</title>
<path fill="none" stroke="midnightblue" d="M126.09,-21.76C134.49,-20.78 143.19,-19.77 151.8,-18.77"/>
<polygon fill="midnightblue" stroke="midnightblue" points="152.31,-22.23 161.83,-17.6 151.5,-15.28 152.31,-22.23"/>
</g>
<!-- Node4 -->
<g id="node4" class="node">
<title>Node4</title>
<g id="a_node4"><a xlink:href="../../db/df3/lsl__c_8h.html#a5af95d29948ec4e56242dcf24d8c974c" target="_top" xlink:title=" ">
<polygon fill="none" stroke="black" points="330,-0.5 330,-19.5 391,-19.5 391,-0.5 330,-0.5"/>
<text text-anchor="middle" x="360.5" y="-7.5" font-family="Helvetica,sans-Serif" font-size="10.00">lsl_name</text>
</a>
</g>
</g>
<!-- Node3&#45;&gt;Node4 -->
<g id="edge3" class="edge">
<title>Node3&#45;&gt;Node4</title>
<path fill="none" stroke="midnightblue" d="M294.25,-10C302.93,-10 311.62,-10 319.69,-10"/>
<polygon fill="midnightblue" stroke="midnightblue" points="319.89,-13.5 329.89,-10 319.89,-6.5 319.89,-13.5"/>
</g>
</g>
</svg>
