<?xml version="1.0" encoding="UTF-8" standalone="no"?>
<!DOCTYPE svg PUBLIC "-//W3C//DTD SVG 1.1//EN"
 "http://www.w3.org/Graphics/SVG/1.1/DTD/svg11.dtd">
<!-- Generated by graphviz version 2.43.0 (0)
 -->
<!-- Title: lsl::stream_outlet::push_chunk_numeric_structs Pages: 1 -->
<svg width="598pt" height="88pt"
 viewBox="0.00 0.00 598.00 88.00" xmlns="http://www.w3.org/2000/svg" xmlns:xlink="http://www.w3.org/1999/xlink">
<g id="graph0" class="graph" transform="scale(1 1) rotate(0) translate(4 84)">
<title>lsl::stream_outlet::push_chunk_numeric_structs</title>
<!-- Node1 -->
<g id="node1" class="node">
<title>Node1</title>
<g id="a_node1"><a xlink:title=" ">
<polygon fill="#bfbfbf" stroke="black" points="0,-19 0,-60 125,-60 125,-19 0,-19"/>
<text text-anchor="start" x="8" y="-48" font-family="Helvetica,sans-Serif" font-size="10.00">lsl::stream_outlet</text>
<text text-anchor="start" x="8" y="-37" font-family="Helvetica,sans-Serif" font-size="10.00">::push_chunk_numeric</text>
<text text-anchor="middle" x="62.5" y="-26" font-family="Helvetica,sans-Serif" font-size="10.00">_structs</text>
</a>
</g>
</g>
<!-- Node2 -->
<g id="node2" class="node">
<title>Node2</title>
<g id="a_node2"><a xlink:href="../../d6/d55/classlsl_1_1stream__outlet.html#a18b2da34bdd1306ef926d97532c43f28" target="_top" xlink:title=" ">
<polygon fill="none" stroke="black" points="161,-24.5 161,-54.5 285,-54.5 285,-24.5 161,-24.5"/>
<text text-anchor="start" x="169" y="-42.5" font-family="Helvetica,sans-Serif" font-size="10.00">lsl::stream_outlet</text>
<text text-anchor="middle" x="223" y="-31.5" font-family="Helvetica,sans-Serif" font-size="10.00">::push_numeric_struct</text>
</a>
</g>
</g>
<!-- Node1&#45;&gt;Node2 -->
<g id="edge1" class="edge">
<title>Node1&#45;&gt;Node2</title>
<path fill="none" stroke="midnightblue" d="M125.23,-39.5C133.58,-39.5 142.19,-39.5 150.68,-39.5"/>
<polygon fill="midnightblue" stroke="midnightblue" points="150.96,-43 160.96,-39.5 150.96,-36 150.96,-43"/>
</g>
<!-- Node3 -->
<g id="node3" class="node">
<title>Node3</title>
<g id="a_node3"><a xlink:href="../../d6/d55/classlsl_1_1stream__outlet.html#af6fda8eb922b27ae3ed98651934243fe" target="_top" xlink:title=" ">
<polygon fill="none" stroke="black" points="327,-49.5 327,-79.5 429,-79.5 429,-49.5 327,-49.5"/>
<text text-anchor="start" x="335" y="-67.5" font-family="Helvetica,sans-Serif" font-size="10.00">lsl::stream_outlet</text>
<text text-anchor="middle" x="378" y="-56.5" font-family="Helvetica,sans-Serif" font-size="10.00">::info</text>
</a>
</g>
</g>
<!-- Node2&#45;&gt;Node3 -->
<g id="edge2" class="edge">
<title>Node2&#45;&gt;Node3</title>
<path fill="none" stroke="midnightblue" d="M285.35,-49.52C295.7,-51.22 306.44,-52.97 316.76,-54.66"/>
<polygon fill="midnightblue" stroke="midnightblue" points="316.48,-58.16 326.91,-56.32 317.61,-51.25 316.48,-58.16"/>
</g>
<!-- Node5 -->
<g id="node5" class="node">
<title>Node5</title>
<g id="a_node5"><a xlink:href="../../d6/d55/classlsl_1_1stream__outlet.html#a5c394e995a86d03cb71c3d180f855681" target="_top" xlink:title=" ">
<polygon fill="none" stroke="black" points="321,-0.5 321,-30.5 435,-30.5 435,-0.5 321,-0.5"/>
<text text-anchor="start" x="329" y="-18.5" font-family="Helvetica,sans-Serif" font-size="10.00">lsl::stream_outlet</text>
<text text-anchor="middle" x="378" y="-7.5" font-family="Helvetica,sans-Serif" font-size="10.00">::push_numeric_raw</text>
</a>
</g>
</g>
<!-- Node2&#45;&gt;Node5 -->
<g id="edge4" class="edge">
<title>Node2&#45;&gt;Node5</title>
<path fill="none" stroke="midnightblue" d="M285.35,-29.88C293.62,-28.58 302.15,-27.24 310.5,-25.93"/>
<polygon fill="midnightblue" stroke="midnightblue" points="311.26,-29.36 320.59,-24.35 310.17,-22.44 311.26,-29.36"/>
</g>
<!-- Node4 -->
<g id="node4" class="node">
<title>Node4</title>
<g id="a_node4"><a xlink:href="../../db/df3/lsl__c_8h.html#ac3d742ffc5b4f8a941835df6d2369547" target="_top" xlink:title=" ">
<polygon fill="none" stroke="black" points="494,-55 494,-74 567,-74 567,-55 494,-55"/>
<text text-anchor="middle" x="530.5" y="-62" font-family="Helvetica,sans-Serif" font-size="10.00">lsl_get_info</text>
</a>
</g>
</g>
<!-- Node3&#45;&gt;Node4 -->
<g id="edge3" class="edge">
<title>Node3&#45;&gt;Node4</title>
<path fill="none" stroke="midnightblue" d="M429.11,-64.5C446.68,-64.5 466.3,-64.5 483.51,-64.5"/>
<polygon fill="midnightblue" stroke="midnightblue" points="483.87,-68 493.87,-64.5 483.87,-61 483.87,-68"/>
</g>
<!-- Node6 -->
<g id="node6" class="node">
<title>Node6</title>
<g id="a_node6"><a xlink:href="../../db/df3/lsl__c_8h.html#ac6eb5ec72140ba4ae26c80112ccaac52" target="_top" xlink:title=" ">
<polygon fill="none" stroke="black" points="471,-6 471,-25 590,-25 590,-6 471,-6"/>
<text text-anchor="middle" x="530.5" y="-13" font-family="Helvetica,sans-Serif" font-size="10.00">lsl_push_sample_vtp</text>
</a>
</g>
</g>
<!-- Node5&#45;&gt;Node6 -->
<g id="edge5" class="edge">
<title>Node5&#45;&gt;Node6</title>
<path fill="none" stroke="midnightblue" d="M435.04,-15.5C443.45,-15.5 452.2,-15.5 460.84,-15.5"/>
<polygon fill="midnightblue" stroke="midnightblue" points="460.9,-19 470.9,-15.5 460.9,-12 460.9,-19"/>
</g>
</g>
</svg>
