<?xml version="1.0" encoding="UTF-8" standalone="no"?>
<!DOCTYPE svg PUBLIC "-//W3C//DTD SVG 1.1//EN"
 "http://www.w3.org/Graphics/SVG/1.1/DTD/svg11.dtd">
<!-- Generated by graphviz version 2.43.0 (0)
 -->
<!-- Title: lsl::stream_outlet::push_chunk Pages: 1 -->
<svg width="444pt" height="194pt"
 viewBox="0.00 0.00 444.00 194.00" xmlns="http://www.w3.org/2000/svg" xmlns:xlink="http://www.w3.org/1999/xlink">
<g id="graph0" class="graph" transform="scale(1 1) rotate(0) translate(4 190)">
<title>lsl::stream_outlet::push_chunk</title>
<!-- Node1 -->
<g id="node1" class="node">
<title>Node1</title>
<g id="a_node1"><a xlink:title=" ">
<polygon fill="#bfbfbf" stroke="black" points="0,-89.5 0,-119.5 102,-119.5 102,-89.5 0,-89.5"/>
<text text-anchor="start" x="8" y="-107.5" font-family="Helvetica,sans-Serif" font-size="10.00">lsl::stream_outlet</text>
<text text-anchor="middle" x="51" y="-96.5" font-family="Helvetica,sans-Serif" font-size="10.00">::push_chunk</text>
</a>
</g>
</g>
<!-- Node2 -->
<g id="node2" class="node">
<title>Node2</title>
<g id="a_node2"><a xlink:href="../../d6/d55/classlsl_1_1stream__outlet.html#af6fda8eb922b27ae3ed98651934243fe" target="_top" xlink:title=" ">
<polygon fill="none" stroke="black" points="156,-155.5 156,-185.5 258,-185.5 258,-155.5 156,-155.5"/>
<text text-anchor="start" x="164" y="-173.5" font-family="Helvetica,sans-Serif" font-size="10.00">lsl::stream_outlet</text>
<text text-anchor="middle" x="207" y="-162.5" font-family="Helvetica,sans-Serif" font-size="10.00">::info</text>
</a>
</g>
</g>
<!-- Node1&#45;&gt;Node2 -->
<g id="edge1" class="edge">
<title>Node1&#45;&gt;Node2</title>
<path fill="none" stroke="midnightblue" d="M81.94,-119.61C98.33,-127.67 119.1,-137.54 138,-145.5 143.07,-147.64 148.4,-149.77 153.74,-151.85"/>
<polygon fill="midnightblue" stroke="midnightblue" points="152.73,-155.21 163.32,-155.5 155.22,-148.67 152.73,-155.21"/>
</g>
<!-- Node4 -->
<g id="node4" class="node">
<title>Node4</title>
<g id="a_node4"><a xlink:href="../../d3/db0/namespacelsl.html#ae1766ae2ab66141cb927612e57a0c8c6" target="_top" xlink:title=" ">
<polygon fill="none" stroke="black" points="163,-117 163,-136 251,-136 251,-117 163,-117"/>
<text text-anchor="middle" x="207" y="-124" font-family="Helvetica,sans-Serif" font-size="10.00">lsl::local_clock</text>
</a>
</g>
</g>
<!-- Node1&#45;&gt;Node4 -->
<g id="edge3" class="edge">
<title>Node1&#45;&gt;Node4</title>
<path fill="none" stroke="midnightblue" d="M102.43,-111.7C118.62,-114.02 136.61,-116.59 152.99,-118.93"/>
<polygon fill="midnightblue" stroke="midnightblue" points="152.56,-122.4 162.95,-120.35 153.55,-115.47 152.56,-122.4"/>
</g>
<!-- Node6 -->
<g id="node6" class="node">
<title>Node6</title>
<g id="a_node6"><a xlink:href="../../d1/d6a/classlsl_1_1stream__info.html#a35b9b9b8947915f9f9518333342e2835" target="_top" xlink:title=" ">
<polygon fill="none" stroke="black" points="138,-67.5 138,-97.5 276,-97.5 276,-67.5 138,-67.5"/>
<text text-anchor="start" x="146" y="-85.5" font-family="Helvetica,sans-Serif" font-size="10.00">lsl::stream_info::nominal</text>
<text text-anchor="middle" x="207" y="-74.5" font-family="Helvetica,sans-Serif" font-size="10.00">_srate</text>
</a>
</g>
</g>
<!-- Node1&#45;&gt;Node6 -->
<g id="edge5" class="edge">
<title>Node1&#45;&gt;Node6</title>
<path fill="none" stroke="midnightblue" d="M102.43,-97.3C110.56,-96.13 119.14,-94.91 127.75,-93.68"/>
<polygon fill="midnightblue" stroke="midnightblue" points="128.43,-97.12 137.83,-92.24 127.44,-90.19 128.43,-97.12"/>
</g>
<!-- Node8 -->
<g id="node8" class="node">
<title>Node8</title>
<g id="a_node8"><a xlink:href="../../d6/d55/classlsl_1_1stream__outlet.html#a675bbe044a5053087e05e0267fe6722a" target="_top" xlink:title=" ">
<polygon fill="none" stroke="black" points="156,-0.5 156,-30.5 258,-30.5 258,-0.5 156,-0.5"/>
<text text-anchor="start" x="164" y="-18.5" font-family="Helvetica,sans-Serif" font-size="10.00">lsl::stream_outlet</text>
<text text-anchor="middle" x="207" y="-7.5" font-family="Helvetica,sans-Serif" font-size="10.00">::push_sample</text>
</a>
</g>
</g>
<!-- Node1&#45;&gt;Node8 -->
<g id="edge7" class="edge">
<title>Node1&#45;&gt;Node8</title>
<path fill="none" stroke="midnightblue" d="M78.12,-89.4C103.75,-74.59 143,-51.91 171.25,-35.58"/>
<polygon fill="midnightblue" stroke="midnightblue" points="173.1,-38.56 180.01,-30.52 169.6,-32.5 173.1,-38.56"/>
</g>
<!-- Node3 -->
<g id="node3" class="node">
<title>Node3</title>
<g id="a_node3"><a xlink:href="../../db/df3/lsl__c_8h.html#ac3d742ffc5b4f8a941835df6d2369547" target="_top" xlink:title=" ">
<polygon fill="none" stroke="black" points="337.5,-161 337.5,-180 410.5,-180 410.5,-161 337.5,-161"/>
<text text-anchor="middle" x="374" y="-168" font-family="Helvetica,sans-Serif" font-size="10.00">lsl_get_info</text>
</a>
</g>
</g>
<!-- Node2&#45;&gt;Node3 -->
<g id="edge2" class="edge">
<title>Node2&#45;&gt;Node3</title>
<path fill="none" stroke="midnightblue" d="M258.4,-170.5C280.31,-170.5 305.8,-170.5 327.16,-170.5"/>
<polygon fill="midnightblue" stroke="midnightblue" points="327.29,-174 337.29,-170.5 327.29,-167 327.29,-174"/>
</g>
<!-- Node5 -->
<g id="node5" class="node">
<title>Node5</title>
<g id="a_node5"><a xlink:href="../../db/df3/lsl__c_8h.html#ab5830dfa3831a239eabae33504633849" target="_top" xlink:title=" ">
<polygon fill="none" stroke="black" points="330.5,-117 330.5,-136 417.5,-136 417.5,-117 330.5,-117"/>
<text text-anchor="middle" x="374" y="-124" font-family="Helvetica,sans-Serif" font-size="10.00">lsl_local_clock</text>
</a>
</g>
</g>
<!-- Node4&#45;&gt;Node5 -->
<g id="edge4" class="edge">
<title>Node4&#45;&gt;Node5</title>
<path fill="none" stroke="midnightblue" d="M251.35,-126.5C272.37,-126.5 297.8,-126.5 319.97,-126.5"/>
<polygon fill="midnightblue" stroke="midnightblue" points="320.22,-130 330.22,-126.5 320.22,-123 320.22,-130"/>
</g>
<!-- Node7 -->
<g id="node7" class="node">
<title>Node7</title>
<g id="a_node7"><a xlink:href="../../db/df3/lsl__c_8h.html#a52b66d7a75574d98e8709d1734fdd113" target="_top" xlink:title=" ">
<polygon fill="none" stroke="black" points="312,-73 312,-92 436,-92 436,-73 312,-73"/>
<text text-anchor="middle" x="374" y="-80" font-family="Helvetica,sans-Serif" font-size="10.00">lsl_get_nominal_srate</text>
</a>
</g>
</g>
<!-- Node6&#45;&gt;Node7 -->
<g id="edge6" class="edge">
<title>Node6&#45;&gt;Node7</title>
<path fill="none" stroke="midnightblue" d="M276.06,-82.5C284.52,-82.5 293.19,-82.5 301.69,-82.5"/>
<polygon fill="midnightblue" stroke="midnightblue" points="301.96,-86 311.96,-82.5 301.96,-79 301.96,-86"/>
</g>
<!-- Node8&#45;&gt;Node8 -->
<g id="edge8" class="edge">
<title>Node8&#45;&gt;Node8</title>
<path fill="none" stroke="midnightblue" d="M179.81,-30.66C173.26,-40.06 182.32,-49 207,-49 222.04,-49 231.28,-45.68 234.72,-40.96"/>
<polygon fill="midnightblue" stroke="midnightblue" points="238.2,-40.46 234.19,-30.66 231.21,-40.83 238.2,-40.46"/>
</g>
</g>
</svg>
