<?xml version="1.0" encoding="UTF-8" standalone="no"?>
<!DOCTYPE svg PUBLIC "-//W3C//DTD SVG 1.1//EN"
 "http://www.w3.org/Graphics/SVG/1.1/DTD/svg11.dtd">
<!-- Generated by graphviz version 2.43.0 (0)
 -->
<!-- Title: lsl::stream_outlet::push_chunk_numeric_structs Pages: 1 -->
<svg width="622pt" height="171pt"
 viewBox="0.00 0.00 622.00 170.50" xmlns="http://www.w3.org/2000/svg" xmlns:xlink="http://www.w3.org/1999/xlink">
<g id="graph0" class="graph" transform="scale(1 1) rotate(0) translate(4 166.5)">
<title>lsl::stream_outlet::push_chunk_numeric_structs</title>
<!-- Node1 -->
<g id="node1" class="node">
<title>Node1</title>
<g id="a_node1"><a xlink:title=" ">
<polygon fill="#bfbfbf" stroke="black" points="0,-66 0,-107 125,-107 125,-66 0,-66"/>
<text text-anchor="start" x="8" y="-95" font-family="Helvetica,sans-Serif" font-size="10.00">lsl::stream_outlet</text>
<text text-anchor="start" x="8" y="-84" font-family="Helvetica,sans-Serif" font-size="10.00">::push_chunk_numeric</text>
<text text-anchor="middle" x="62.5" y="-73" font-family="Helvetica,sans-Serif" font-size="10.00">_structs</text>
</a>
</g>
</g>
<!-- Node2 -->
<g id="node2" class="node">
<title>Node2</title>
<g id="a_node2"><a xlink:href="../../d6/d55/classlsl_1_1stream__outlet.html#af6fda8eb922b27ae3ed98651934243fe" target="_top" xlink:title=" ">
<polygon fill="none" stroke="black" points="346,-93.5 346,-123.5 448,-123.5 448,-93.5 346,-93.5"/>
<text text-anchor="start" x="354" y="-111.5" font-family="Helvetica,sans-Serif" font-size="10.00">lsl::stream_outlet</text>
<text text-anchor="middle" x="397" y="-100.5" font-family="Helvetica,sans-Serif" font-size="10.00">::info</text>
</a>
</g>
</g>
<!-- Node1&#45;&gt;Node2 -->
<g id="edge1" class="edge">
<title>Node1&#45;&gt;Node2</title>
<path fill="none" stroke="midnightblue" d="M125.26,-90.59C185.45,-94.57 276.35,-100.58 335.95,-104.53"/>
<polygon fill="midnightblue" stroke="midnightblue" points="335.75,-108.02 345.96,-105.19 336.22,-101.04 335.75,-108.02"/>
</g>
<!-- Node4 -->
<g id="node4" class="node">
<title>Node4</title>
<g id="a_node4"><a xlink:href="../../d3/db0/namespacelsl.html#ae1766ae2ab66141cb927612e57a0c8c6" target="_top" xlink:title=" ">
<polygon fill="none" stroke="black" points="186,-140 186,-159 274,-159 274,-140 186,-140"/>
<text text-anchor="middle" x="230" y="-147" font-family="Helvetica,sans-Serif" font-size="10.00">lsl::local_clock</text>
</a>
</g>
</g>
<!-- Node1&#45;&gt;Node4 -->
<g id="edge3" class="edge">
<title>Node1&#45;&gt;Node4</title>
<path fill="none" stroke="midnightblue" d="M117.69,-107.13C142.98,-116.76 172.33,-127.93 194.54,-136.38"/>
<polygon fill="midnightblue" stroke="midnightblue" points="193.31,-139.66 203.9,-139.94 195.8,-133.12 193.31,-139.66"/>
</g>
<!-- Node6 -->
<g id="node6" class="node">
<title>Node6</title>
<g id="a_node6"><a xlink:href="../../d1/d6a/classlsl_1_1stream__info.html#a35b9b9b8947915f9f9518333342e2835" target="_top" xlink:title=" ">
<polygon fill="none" stroke="black" points="161,-0.5 161,-30.5 299,-30.5 299,-0.5 161,-0.5"/>
<text text-anchor="start" x="169" y="-18.5" font-family="Helvetica,sans-Serif" font-size="10.00">lsl::stream_info::nominal</text>
<text text-anchor="middle" x="230" y="-7.5" font-family="Helvetica,sans-Serif" font-size="10.00">_srate</text>
</a>
</g>
</g>
<!-- Node1&#45;&gt;Node6 -->
<g id="edge5" class="edge">
<title>Node1&#45;&gt;Node6</title>
<path fill="none" stroke="midnightblue" d="M103.84,-65.82C121.23,-57.23 141.92,-47.44 161,-39.5 165.39,-37.67 169.98,-35.86 174.61,-34.1"/>
<polygon fill="midnightblue" stroke="midnightblue" points="175.96,-37.33 184.11,-30.56 173.52,-30.77 175.96,-37.33"/>
</g>
<!-- Node8 -->
<g id="node8" class="node">
<title>Node8</title>
<g id="a_node8"><a xlink:href="../../d6/d55/classlsl_1_1stream__outlet.html#a18b2da34bdd1306ef926d97532c43f28" target="_top" xlink:title=" ">
<polygon fill="none" stroke="black" points="168,-49.5 168,-79.5 292,-79.5 292,-49.5 168,-49.5"/>
<text text-anchor="start" x="176" y="-67.5" font-family="Helvetica,sans-Serif" font-size="10.00">lsl::stream_outlet</text>
<text text-anchor="middle" x="230" y="-56.5" font-family="Helvetica,sans-Serif" font-size="10.00">::push_numeric_struct</text>
</a>
</g>
</g>
<!-- Node1&#45;&gt;Node8 -->
<g id="edge7" class="edge">
<title>Node1&#45;&gt;Node8</title>
<path fill="none" stroke="midnightblue" d="M125.13,-78.31C135.82,-76.89 147.02,-75.4 157.94,-73.95"/>
<polygon fill="midnightblue" stroke="midnightblue" points="158.42,-77.41 167.87,-72.63 157.5,-70.47 158.42,-77.41"/>
</g>
<!-- Node3 -->
<g id="node3" class="node">
<title>Node3</title>
<g id="a_node3"><a xlink:href="../../db/df3/lsl__c_8h.html#ac3d742ffc5b4f8a941835df6d2369547" target="_top" xlink:title=" ">
<polygon fill="none" stroke="black" points="518,-99 518,-118 591,-118 591,-99 518,-99"/>
<text text-anchor="middle" x="554.5" y="-106" font-family="Helvetica,sans-Serif" font-size="10.00">lsl_get_info</text>
</a>
</g>
</g>
<!-- Node2&#45;&gt;Node3 -->
<g id="edge2" class="edge">
<title>Node2&#45;&gt;Node3</title>
<path fill="none" stroke="midnightblue" d="M448.06,-108.5C467.23,-108.5 489,-108.5 507.75,-108.5"/>
<polygon fill="midnightblue" stroke="midnightblue" points="507.83,-112 517.83,-108.5 507.83,-105 507.83,-112"/>
</g>
<!-- Node5 -->
<g id="node5" class="node">
<title>Node5</title>
<g id="a_node5"><a xlink:href="../../db/df3/lsl__c_8h.html#ab5830dfa3831a239eabae33504633849" target="_top" xlink:title=" ">
<polygon fill="none" stroke="black" points="353.5,-143 353.5,-162 440.5,-162 440.5,-143 353.5,-143"/>
<text text-anchor="middle" x="397" y="-150" font-family="Helvetica,sans-Serif" font-size="10.00">lsl_local_clock</text>
</a>
</g>
</g>
<!-- Node4&#45;&gt;Node5 -->
<g id="edge4" class="edge">
<title>Node4&#45;&gt;Node5</title>
<path fill="none" stroke="midnightblue" d="M274.35,-150.29C295.37,-150.67 320.8,-151.13 342.97,-151.54"/>
<polygon fill="midnightblue" stroke="midnightblue" points="343.16,-155.04 353.22,-151.72 343.29,-148.04 343.16,-155.04"/>
</g>
<!-- Node7 -->
<g id="node7" class="node">
<title>Node7</title>
<g id="a_node7"><a xlink:href="../../db/df3/lsl__c_8h.html#a52b66d7a75574d98e8709d1734fdd113" target="_top" xlink:title=" ">
<polygon fill="none" stroke="black" points="335,-6 335,-25 459,-25 459,-6 335,-6"/>
<text text-anchor="middle" x="397" y="-13" font-family="Helvetica,sans-Serif" font-size="10.00">lsl_get_nominal_srate</text>
</a>
</g>
</g>
<!-- Node6&#45;&gt;Node7 -->
<g id="edge6" class="edge">
<title>Node6&#45;&gt;Node7</title>
<path fill="none" stroke="midnightblue" d="M299.06,-15.5C307.52,-15.5 316.19,-15.5 324.69,-15.5"/>
<polygon fill="midnightblue" stroke="midnightblue" points="324.96,-19 334.96,-15.5 324.96,-12 324.96,-19"/>
</g>
<!-- Node8&#45;&gt;Node2 -->
<g id="edge8" class="edge">
<title>Node8&#45;&gt;Node2</title>
<path fill="none" stroke="midnightblue" d="M287.32,-79.52C303.02,-83.7 320.12,-88.27 336.02,-92.5"/>
<polygon fill="midnightblue" stroke="midnightblue" points="335.17,-95.9 345.74,-95.1 336.98,-89.14 335.17,-95.9"/>
</g>
<!-- Node9 -->
<g id="node9" class="node">
<title>Node9</title>
<g id="a_node9"><a xlink:href="../../d6/d55/classlsl_1_1stream__outlet.html#a5c394e995a86d03cb71c3d180f855681" target="_top" xlink:title=" ">
<polygon fill="none" stroke="black" points="340,-44.5 340,-74.5 454,-74.5 454,-44.5 340,-44.5"/>
<text text-anchor="start" x="348" y="-62.5" font-family="Helvetica,sans-Serif" font-size="10.00">lsl::stream_outlet</text>
<text text-anchor="middle" x="397" y="-51.5" font-family="Helvetica,sans-Serif" font-size="10.00">::push_numeric_raw</text>
</a>
</g>
</g>
<!-- Node8&#45;&gt;Node9 -->
<g id="edge9" class="edge">
<title>Node8&#45;&gt;Node9</title>
<path fill="none" stroke="midnightblue" d="M292.44,-62.64C304.61,-62.27 317.43,-61.88 329.75,-61.51"/>
<polygon fill="midnightblue" stroke="midnightblue" points="330.07,-65 339.96,-61.2 329.86,-58 330.07,-65"/>
</g>
<!-- Node10 -->
<g id="node10" class="node">
<title>Node10</title>
<g id="a_node10"><a xlink:href="../../db/df3/lsl__c_8h.html#ac6eb5ec72140ba4ae26c80112ccaac52" target="_top" xlink:title=" ">
<polygon fill="none" stroke="black" points="495,-50 495,-69 614,-69 614,-50 495,-50"/>
<text text-anchor="middle" x="554.5" y="-57" font-family="Helvetica,sans-Serif" font-size="10.00">lsl_push_sample_vtp</text>
</a>
</g>
</g>
<!-- Node9&#45;&gt;Node10 -->
<g id="edge10" class="edge">
<title>Node9&#45;&gt;Node10</title>
<path fill="none" stroke="midnightblue" d="M454.14,-59.5C464.06,-59.5 474.48,-59.5 484.7,-59.5"/>
<polygon fill="midnightblue" stroke="midnightblue" points="484.82,-63 494.82,-59.5 484.82,-56 484.82,-63"/>
</g>
</g>
</svg>
