<?xml version="1.0" encoding="UTF-8" standalone="no"?>
<!DOCTYPE svg PUBLIC "-//W3C//DTD SVG 1.1//EN"
 "http://www.w3.org/Graphics/SVG/1.1/DTD/svg11.dtd">
<!-- Generated by graphviz version 2.43.0 (0)
 -->
<!-- Title: lsl::stream_outlet::push_numeric_struct Pages: 1 -->
<svg width="437pt" height="88pt"
 viewBox="0.00 0.00 437.00 88.00" xmlns="http://www.w3.org/2000/svg" xmlns:xlink="http://www.w3.org/1999/xlink">
<g id="graph0" class="graph" transform="scale(1 1) rotate(0) translate(4 84)">
<title>lsl::stream_outlet::push_numeric_struct</title>
<!-- Node1 -->
<g id="node1" class="node">
<title>Node1</title>
<g id="a_node1"><a xlink:title=" ">
<polygon fill="#bfbfbf" stroke="black" points="0,-24.5 0,-54.5 124,-54.5 124,-24.5 0,-24.5"/>
<text text-anchor="start" x="8" y="-42.5" font-family="Helvetica,sans-Serif" font-size="10.00">lsl::stream_outlet</text>
<text text-anchor="middle" x="62" y="-31.5" font-family="Helvetica,sans-Serif" font-size="10.00">::push_numeric_struct</text>
</a>
</g>
</g>
<!-- Node2 -->
<g id="node2" class="node">
<title>Node2</title>
<g id="a_node2"><a xlink:href="../../d6/d55/classlsl_1_1stream__outlet.html#af6fda8eb922b27ae3ed98651934243fe" target="_top" xlink:title=" ">
<polygon fill="none" stroke="black" points="166,-49.5 166,-79.5 268,-79.5 268,-49.5 166,-49.5"/>
<text text-anchor="start" x="174" y="-67.5" font-family="Helvetica,sans-Serif" font-size="10.00">lsl::stream_outlet</text>
<text text-anchor="middle" x="217" y="-56.5" font-family="Helvetica,sans-Serif" font-size="10.00">::info</text>
</a>
</g>
</g>
<!-- Node1&#45;&gt;Node2 -->
<g id="edge1" class="edge">
<title>Node1&#45;&gt;Node2</title>
<path fill="none" stroke="midnightblue" d="M124.35,-49.52C134.7,-51.22 145.44,-52.97 155.76,-54.66"/>
<polygon fill="midnightblue" stroke="midnightblue" points="155.48,-58.16 165.91,-56.32 156.61,-51.25 155.48,-58.16"/>
</g>
<!-- Node4 -->
<g id="node4" class="node">
<title>Node4</title>
<g id="a_node4"><a xlink:href="../../d6/d55/classlsl_1_1stream__outlet.html#a5c394e995a86d03cb71c3d180f855681" target="_top" xlink:title=" ">
<polygon fill="none" stroke="black" points="160,-0.5 160,-30.5 274,-30.5 274,-0.5 160,-0.5"/>
<text text-anchor="start" x="168" y="-18.5" font-family="Helvetica,sans-Serif" font-size="10.00">lsl::stream_outlet</text>
<text text-anchor="middle" x="217" y="-7.5" font-family="Helvetica,sans-Serif" font-size="10.00">::push_numeric_raw</text>
</a>
</g>
</g>
<!-- Node1&#45;&gt;Node4 -->
<g id="edge3" class="edge">
<title>Node1&#45;&gt;Node4</title>
<path fill="none" stroke="midnightblue" d="M124.35,-29.88C132.62,-28.58 141.15,-27.24 149.5,-25.93"/>
<polygon fill="midnightblue" stroke="midnightblue" points="150.26,-29.36 159.59,-24.35 149.17,-22.44 150.26,-29.36"/>
</g>
<!-- Node3 -->
<g id="node3" class="node">
<title>Node3</title>
<g id="a_node3"><a xlink:href="../../db/df3/lsl__c_8h.html#ac3d742ffc5b4f8a941835df6d2369547" target="_top" xlink:title=" ">
<polygon fill="none" stroke="black" points="333,-55 333,-74 406,-74 406,-55 333,-55"/>
<text text-anchor="middle" x="369.5" y="-62" font-family="Helvetica,sans-Serif" font-size="10.00">lsl_get_info</text>
</a>
</g>
</g>
<!-- Node2&#45;&gt;Node3 -->
<g id="edge2" class="edge">
<title>Node2&#45;&gt;Node3</title>
<path fill="none" stroke="midnightblue" d="M268.11,-64.5C285.68,-64.5 305.3,-64.5 322.51,-64.5"/>
<polygon fill="midnightblue" stroke="midnightblue" points="322.87,-68 332.87,-64.5 322.87,-61 322.87,-68"/>
</g>
<!-- Node5 -->
<g id="node5" class="node">
<title>Node5</title>
<g id="a_node5"><a xlink:href="../../db/df3/lsl__c_8h.html#ac6eb5ec72140ba4ae26c80112ccaac52" target="_top" xlink:title=" ">
<polygon fill="none" stroke="black" points="310,-6 310,-25 429,-25 429,-6 310,-6"/>
<text text-anchor="middle" x="369.5" y="-13" font-family="Helvetica,sans-Serif" font-size="10.00">lsl_push_sample_vtp</text>
</a>
</g>
</g>
<!-- Node4&#45;&gt;Node5 -->
<g id="edge4" class="edge">
<title>Node4&#45;&gt;Node5</title>
<path fill="none" stroke="midnightblue" d="M274.04,-15.5C282.45,-15.5 291.2,-15.5 299.84,-15.5"/>
<polygon fill="midnightblue" stroke="midnightblue" points="299.9,-19 309.9,-15.5 299.9,-12 299.9,-19"/>
</g>
</g>
</svg>
