<?xml version="1.0" encoding="UTF-8" standalone="no"?>
<!DOCTYPE svg PUBLIC "-//W3C//DTD SVG 1.1//EN"
 "http://www.w3.org/Graphics/SVG/1.1/DTD/svg11.dtd">
<!-- Generated by graphviz version 2.43.0 (0)
 -->
<!-- Title: lsl::stream_info::from_xml Pages: 1 -->
<svg width="347pt" height="66pt"
 viewBox="0.00 0.00 347.00 66.00" xmlns="http://www.w3.org/2000/svg" xmlns:xlink="http://www.w3.org/1999/xlink">
<g id="graph0" class="graph" transform="scale(1 1) rotate(0) translate(4 62)">
<title>lsl::stream_info::from_xml</title>
<!-- Node1 -->
<g id="node1" class="node">
<title>Node1</title>
<g id="a_node1"><a xlink:title="Utility function to create a stream_info from an XML representation.">
<polygon fill="#bfbfbf" stroke="black" points="0,-19.5 0,-38.5 146,-38.5 146,-19.5 0,-19.5"/>
<text text-anchor="middle" x="73" y="-26.5" font-family="Helvetica,sans-Serif" font-size="10.00">lsl::stream_info::from_xml</text>
</a>
</g>
</g>
<!-- Node2 -->
<g id="node2" class="node">
<title>Node2</title>
<g id="a_node2"><a xlink:href="../../db/df3/lsl__c_8h.html#a2d42a5d991505811d98ba04c6319f41b" target="_top" xlink:title="Create a streaminfo object from an XML representation.">
<polygon fill="none" stroke="black" points="191,-38.5 191,-57.5 330,-57.5 330,-38.5 191,-38.5"/>
<text text-anchor="middle" x="260.5" y="-45.5" font-family="Helvetica,sans-Serif" font-size="10.00">lsl_streaminfo_from_xml</text>
</a>
</g>
</g>
<!-- Node1&#45;&gt;Node2 -->
<g id="edge1" class="edge">
<title>Node1&#45;&gt;Node2</title>
<path fill="none" stroke="midnightblue" d="M146.25,-36.4C157.58,-37.56 169.34,-38.77 180.81,-39.94"/>
<polygon fill="midnightblue" stroke="midnightblue" points="180.48,-43.42 190.79,-40.96 181.2,-36.46 180.48,-43.42"/>
</g>
<!-- Node3 -->
<g id="node3" class="node">
<title>Node3</title>
<g id="a_node3"><a xlink:href="../../d1/d6a/classlsl_1_1stream__info.html#a780a9289cc6f1d57215ed297aecfc78b" target="_top" xlink:title="Default contructor.">
<polygon fill="none" stroke="black" points="182,-0.5 182,-19.5 339,-19.5 339,-0.5 182,-0.5"/>
<text text-anchor="middle" x="260.5" y="-7.5" font-family="Helvetica,sans-Serif" font-size="10.00">lsl::stream_info::stream_info</text>
</a>
</g>
</g>
<!-- Node1&#45;&gt;Node3 -->
<g id="edge2" class="edge">
<title>Node1&#45;&gt;Node3</title>
<path fill="none" stroke="midnightblue" d="M146.25,-21.6C154.66,-20.74 163.3,-19.85 171.89,-18.97"/>
<polygon fill="midnightblue" stroke="midnightblue" points="172.33,-22.45 181.92,-17.95 171.62,-15.48 172.33,-22.45"/>
</g>
</g>
</svg>
